{
	"asset":{
		"generator":"Khronos glTF Blender I/O v3.6.28",
		"version":"2.0"
	},
	"scene":0,
	"scenes":[
		{
			"name":"Scene",
			"nodes":[
				0,
				1,
				2,
				3,
				4,
				6,
				7,
				8,
				9,
				10,
				11
			]
		}
	],
	"nodes":[
		{
			"name":"Sketchfab_model",
			"rotation":[
				-0.70710688829422,
				0,
				0,
				0.7071066498756409
			],
			"translation":[
				0.44061902165412903,
				-0.022733483463525772,
				-1.9451490640640259
			]
		},
		{
			"name":"85238dad23934237882045b79c705d5f.fbx",
			"scale":[
				0.009999999776482582,
				0.010000001639127731,
				0.010000001639127731
			],
			"translation":[
				0.44061902165412903,
				-0.022733483463525772,
				-1.9451490640640259
			]
		},
		{
			"name":"RootNode",
			"scale":[
				0.009999999776482582,
				0.010000001639127731,
				0.010000001639127731
			],
			"translation":[
				0.44061902165412903,
				-0.022733483463525772,
				-1.9451490640640259
			]
		},
		{
			"name":"Object_12",
			"rotation":[
				-0.70710688829422,
				0,
				0,
				0.7071066498756409
			],
			"scale":[
				0.004201003350317478,
				0.004201004281640053,
				0.004201004281640053
			],
			"translation":[
				0.41606640815734863,
				0.21887660026550293,
				-1.2807484865188599
			]
		},
		{
			"name":"Plane001",
			"rotation":[
				-0.7071069478988647,
				0,
				0,
				0.7071066498756409
			],
			"scale":[
				0.006531985942274332,
				0.006531987339258194,
				0.006531987339258194
			],
			"translation":[
				0.11902478337287903,
				-0.022733483463525772,
				-2.0180177688598633
			]
		},
		{
			"name":"Object_28",
			"translation":[
				67.95669555664062,
				16.19693374633789,
				-17.636436462402344
			]
		},
		{
			"children":[
				5
			],
			"name":"Tractor01",
			"rotation":[
				-0.70710688829422,
				0,
				0,
				0.7071066498756409
			],
			"scale":[
				0.0106747355312109,
				0.006241458002477884,
				0.005370272323489189
			],
			"translation":[
				-0.05036003142595291,
				-0.022733483463525772,
				-0.009321252815425396
			]
		},
		{
			"mesh":0,
			"name":"Tractor01_07 - Default_0",
			"rotation":[
				-0.70710688829422,
				0,
				0,
				0.7071066498756409
			],
			"scale":[
				0.0106747355312109,
				0.006241458002477884,
				0.005370272323489189
			]
		},
		{
			"mesh":1,
			"name":"Tractor01_02 - Default_0",
			"rotation":[
				-0.70710688829422,
				0,
				0,
				0.7071066498756409
			],
			"scale":[
				0.0106747355312109,
				0.006241458002477884,
				0.005370272323489189
			]
		},
		{
			"mesh":2,
			"name":"Tractor01_09 - Default_0",
			"rotation":[
				-0.70710688829422,
				0,
				0,
				0.7071066498756409
			],
			"scale":[
				0.0106747355312109,
				0.006241458002477884,
				0.005370272323489189
			]
		},
		{
			"mesh":3,
			"name":"Tractor01_03 - Default_0",
			"rotation":[
				-0.70710688829422,
				0,
				0,
				0.7071066498756409
			],
			"scale":[
				0.0106747355312109,
				0.006241458002477884,
				0.005370272323489189
			]
		},
		{
			"mesh":4,
			"name":"Tractor01_08 - Default_0",
			"rotation":[
				-0.70710688829422,
				0,
				0,
				0.7071066498756409
			],
			"scale":[
				0.0106747355312109,
				0.006241458002477884,
				0.005370272323489189
			]
		}
	],
	"materials":[
		{
			"doubleSided":true,
			"name":"07_-_Default",
			"pbrMetallicRoughness":{
				"baseColorFactor":[
					0.08997928351163864,
					0.08997928351163864,
					0.08997928351163864,
					1
				],
				"metallicFactor":0,
				"roughnessFactor":0.5
			}
		},
		{
			"doubleSided":true,
			"name":"02_-_Default",
			"pbrMetallicRoughness":{}
		},
		{
			"doubleSided":true,
			"name":"09_-_Default",
			"pbrMetallicRoughness":{}
		},
		{
			"doubleSided":true,
			"name":"03_-_Default",
			"pbrMetallicRoughness":{
				"baseColorFactor":[
					0.8000000715255737,
					0,
					0.014451687224209309,
					1
				],
				"metallicFactor":0,
				"roughnessFactor":0.5
			}
		},
		{
			"alphaMode":"BLEND",
			"doubleSided":true,
			"name":"08_-_Default",
			"pbrMetallicRoughness":{
				"baseColorFactor":[
					0.800000011920929,
					0.800000011920929,
					0.800000011920929,
					1
				],
				"metallicFactor":0,
				"roughnessFactor":0.5
			}
		}
	],
	"meshes":[
		{
			"name":"Tractor01_07 - Default_0",
			"primitives":[
				{
					"attributes":{
						"POSITION":0,
						"NORMAL":1,
						"TEXCOORD_0":2
					},
					"indices":3,
					"material":0
				}
			]
		},
		{
			"name":"Tractor01_02 - Default_0",
			"primitives":[
				{
					"attributes":{
						"POSITION":4,
						"NORMAL":5,
						"TEXCOORD_0":6
					},
					"indices":7,
					"material":1
				}
			]
		},
		{
			"name":"Tractor01_09 - Default_0",
			"primitives":[
				{
					"attributes":{
						"POSITION":8,
						"NORMAL":9,
						"TEXCOORD_0":10
					},
					"indices":11,
					"material":2
				}
			]
		},
		{
			"name":"Tractor01_03 - Default_0",
			"primitives":[
				{
					"attributes":{
						"POSITION":12,
						"NORMAL":13,
						"TEXCOORD_0":14
					},
					"indices":15,
					"material":3
				}
			]
		},
		{
			"name":"Tractor01_08 - Default_0",
			"primitives":[
				{
					"attributes":{
						"POSITION":16,
						"NORMAL":17,
						"TEXCOORD_0":18
					},
					"indices":19,
					"material":4
				}
			]
		}
	],
	"accessors":[
		{
			"bufferView":0,
			"componentType":5126,
			"count":2868,
			"max":[
				22.380170822143555,
				86.04618835449219,
				144.7794952392578
			],
			"min":[
				-31.815536499023438,
				-82.54801177978516,
				-4.233216762542725
			],
			"type":"VEC3"
		},
		{
			"bufferView":1,
			"componentType":5126,
			"count":2868,
			"type":"VEC3"
		},
		{
			"bufferView":2,
			"componentType":5126,
			"count":2868,
			"type":"VEC2"
		},
		{
			"bufferView":3,
			"componentType":5123,
			"count":3384,
			"type":"SCALAR"
		},
		{
			"bufferView":4,
			"componentType":5126,
			"count":8,
			"max":[
				21.4903621673584,
				54.880062103271484,
				96.04063415527344
			],
			"min":[
				-30.16107177734375,
				54.880062103271484,
				88.98998260498047
			],
			"type":"VEC3"
		},
		{
			"bufferView":5,
			"componentType":5126,
			"count":8,
			"type":"VEC3"
		},
		{
			"bufferView":6,
			"componentType":5126,
			"count":8,
			"type":"VEC2"
		},
		{
			"bufferView":7,
			"componentType":5123,
			"count":12,
			"type":"SCALAR"
		},
		{
			"bufferView":8,
			"componentType":5126,
			"count":732,
			"max":[
				19.134366989135742,
				69.89472961425781,
				156.9886932373047
			],
			"min":[
				-28.569732666015625,
				-86.83789825439453,
				10.786348342895508
			],
			"type":"VEC3"
		},
		{
			"bufferView":9,
			"componentType":5126,
			"count":732,
			"type":"VEC3"
		},
		{
			"bufferView":10,
			"componentType":5126,
			"count":732,
			"type":"VEC2"
		},
		{
			"bufferView":11,
			"componentType":5123,
			"count":948,
			"type":"SCALAR"
		},
		{
			"bufferView":12,
			"componentType":5126,
			"count":1518,
			"max":[
				23.58687400817871,
				94.60791015625,
				150.44581604003906
			],
			"min":[
				-33.02223205566406,
				-91.62104034423828,
				15.778470993041992
			],
			"type":"VEC3"
		},
		{
			"bufferView":13,
			"componentType":5126,
			"count":1518,
			"type":"VEC3"
		},
		{
			"bufferView":14,
			"componentType":5126,
			"count":1518,
			"type":"VEC2"
		},
		{
			"bufferView":15,
			"componentType":5123,
			"count":2262,
			"type":"SCALAR"
		},
		{
			"bufferView":16,
			"componentType":5126,
			"count":77,
			"max":[
				12.305234909057617,
				58.63893508911133,
				141.05140686035156
			],
			"min":[
				-21.740602493286133,
				-2.2707977294921875,
				80.05464935302734
			],
			"type":"VEC3"
		},
		{
			"bufferView":17,
			"componentType":5126,
			"count":77,
			"type":"VEC3"
		},
		{
			"bufferView":18,
			"componentType":5126,
			"count":77,
			"type":"VEC2"
		},
		{
			"bufferView":19,
			"componentType":5123,
			"count":114,
			"type":"SCALAR"
		}
	],
	"bufferViews":[
		{
			"buffer":0,
			"byteLength":34416,
			"byteOffset":0,
			"target":34962
		},
		{
			"buffer":0,
			"byteLength":34416,
			"byteOffset":34416,
			"target":34962
		},
		{
			"buffer":0,
			"byteLength":22944,
			"byteOffset":68832,
			"target":34962
		},
		{
			"buffer":0,
			"byteLength":6768,
			"byteOffset":91776,
			"target":34963
		},
		{
			"buffer":0,
			"byteLength":96,
			"byteOffset":98544,
			"target":34962
		},
		{
			"buffer":0,
			"byteLength":96,
			"byteOffset":98640,
			"target":34962
		},
		{
			"buffer":0,
			"byteLength":64,
			"byteOffset":98736,
			"target":34962
		},
		{
			"buffer":0,
			"byteLength":24,
			"byteOffset":98800,
			"target":34963
		},
		{
			"buffer":0,
			"byteLength":8784,
			"byteOffset":98824,
			"target":34962
		},
		{
			"buffer":0,
			"byteLength":8784,
			"byteOffset":107608,
			"target":34962
		},
		{
			"buffer":0,
			"byteLength":5856,
			"byteOffset":116392,
			"target":34962
		},
		{
			"buffer":0,
			"byteLength":1896,
			"byteOffset":122248,
			"target":34963
		},
		{
			"buffer":0,
			"byteLength":18216,
			"byteOffset":124144,
			"target":34962
		},
		{
			"buffer":0,
			"byteLength":18216,
			"byteOffset":142360,
			"target":34962
		},
		{
			"buffer":0,
			"byteLength":12144,
			"byteOffset":160576,
			"target":34962
		},
		{
			"buffer":0,
			"byteLength":4524,
			"byteOffset":172720,
			"target":34963
		},
		{
			"buffer":0,
			"byteLength":924,
			"byteOffset":177244,
			"target":34962
		},
		{
			"buffer":0,
			"byteLength":924,
			"byteOffset":178168,
			"target":34962
		},
		{
			"buffer":0,
			"byteLength":616,
			"byteOffset":179092,
			"target":34962
		},
		{
			"buffer":0,
			"byteLength":228,
			"byteOffset":179708,
			"target":34963
		}
	],
	"buffers":[
		{
			"byteLength":179936,
			"uri":"data:application/octet-stream;base64,"
		}
	]
}
