{
	"asset":{
		"generator":"Khronos glTF Blender I/O v3.6.28",
		"version":"2.0"
	},
	"scene":0,
	"scenes":[
		{
			"name":"Scene",
			"nodes":[
				0
			]
		}
	],
	"nodes":[
		{
			"mesh":0,
			"name":"defaultMaterial.022",
			"scale":[
				0.037583570927381516,
				0.03758356720209122,
				0.03758356720209122
			],
			"translation":[
				0.5169180631637573,
				0.1488220989704132,
				0
			]
		}
	],
	"animations":[
		{
			"channels":[
				{
					"sampler":0,
					"target":{
						"node":0,
						"path":"translation"
					}
				},
				{
					"sampler":1,
					"target":{
						"node":0,
						"path":"rotation"
					}
				}
			],
			"name":"volta",
			"samplers":[
				{
					"input":28,
					"interpolation":"LINEAR",
					"output":29
				},
				{
					"input":28,
					"interpolation":"LINEAR",
					"output":30
				}
			]
		}
	],
	"materials":[
		{
			"doubleSided":true,
			"name":"defaultMaterial_0.001",
			"normalTexture":{
				"index":0
			},
			"pbrMetallicRoughness":{
				"baseColorTexture":{
					"index":1
				},
				"metallicFactor":0,
				"roughnessFactor":0.6000000238418579
			}
		},
		{
			"doubleSided":true,
			"name":"defaultMaterial.001",
			"normalTexture":{
				"index":2
			},
			"pbrMetallicRoughness":{
				"baseColorTexture":{
					"index":3
				},
				"metallicFactor":0,
				"roughnessFactor":0.6000000238418579
			}
		},
		{
			"doubleSided":true,
			"name":"defaultMaterial_1.001",
			"pbrMetallicRoughness":{
				"metallicFactor":0,
				"roughnessFactor":0.6000000238418579
			}
		},
		{
			"doubleSided":true,
			"name":"defaultMaterial_2.001",
			"pbrMetallicRoughness":{
				"baseColorTexture":{
					"index":4
				},
				"metallicFactor":0,
				"roughnessFactor":0.6000000238418579
			}
		}
	],
	"meshes":[
		{
			"name":"defaultMaterial.037",
			"primitives":[
				{
					"attributes":{
						"POSITION":0,
						"NORMAL":1,
						"TEXCOORD_0":2,
						"TEXCOORD_1":3,
						"TEXCOORD_2":4,
						"TEXCOORD_3":5
					},
					"indices":6,
					"material":0
				},
				{
					"attributes":{
						"POSITION":7,
						"NORMAL":8,
						"TEXCOORD_0":9,
						"TEXCOORD_1":10,
						"TEXCOORD_2":11,
						"TEXCOORD_3":12
					},
					"indices":13,
					"material":1
				},
				{
					"attributes":{
						"POSITION":14,
						"NORMAL":15,
						"TEXCOORD_0":16,
						"TEXCOORD_1":17,
						"TEXCOORD_2":18,
						"TEXCOORD_3":19
					},
					"indices":20,
					"material":2
				},
				{
					"attributes":{
						"POSITION":21,
						"NORMAL":22,
						"TEXCOORD_0":23,
						"TEXCOORD_1":24,
						"TEXCOORD_2":25,
						"TEXCOORD_3":26
					},
					"indices":27,
					"material":3
				}
			]
		}
	],
	"textures":[
		{
			"sampler":0,
			"source":0
		},
		{
			"sampler":0,
			"source":1
		},
		{
			"sampler":0,
			"source":2
		},
		{
			"sampler":0,
			"source":3
		},
		{
			"sampler":0,
			"source":4
		}
	],
	"images":[
		{
			"bufferView":7,
			"mimeType":"image/png",
			"name":"Image_3"
		},
		{
			"bufferView":8,
			"mimeType":"image/png",
			"name":"Image_2"
		},
		{
			"bufferView":16,
			"mimeType":"image/png",
			"name":"Image_1"
		},
		{
			"bufferView":17,
			"mimeType":"image/png",
			"name":"Image_0"
		},
		{
			"bufferView":32,
			"mimeType":"image/png",
			"name":"Image_4"
		}
	],
	"accessors":[
		{
			"bufferView":0,
			"componentType":5126,
			"count":2076,
			"max":[
				7.15386962890625,
				8.594907760620117,
				16.84235382080078
			],
			"min":[
				-7.1538777351379395,
				0.27135729789733887,
				-10.469247817993164
			],
			"type":"VEC3"
		},
		{
			"bufferView":1,
			"componentType":5126,
			"count":2076,
			"type":"VEC3"
		},
		{
			"bufferView":2,
			"componentType":5126,
			"count":2076,
			"type":"VEC2"
		},
		{
			"bufferView":3,
			"componentType":5126,
			"count":2076,
			"type":"VEC2"
		},
		{
			"bufferView":4,
			"componentType":5126,
			"count":2076,
			"type":"VEC2"
		},
		{
			"bufferView":5,
			"componentType":5126,
			"count":2076,
			"type":"VEC2"
		},
		{
			"bufferView":6,
			"componentType":5123,
			"count":6414,
			"type":"SCALAR"
		},
		{
			"bufferView":9,
			"componentType":5126,
			"count":897,
			"max":[
				7.87381649017334,
				5.914166450500488,
				13.006202697753906
			],
			"min":[
				-7.873824119567871,
				0.0007786750793457031,
				-9.735411643981934
			],
			"type":"VEC3"
		},
		{
			"bufferView":10,
			"componentType":5126,
			"count":897,
			"type":"VEC3"
		},
		{
			"bufferView":11,
			"componentType":5126,
			"count":897,
			"type":"VEC2"
		},
		{
			"bufferView":12,
			"componentType":5126,
			"count":897,
			"type":"VEC2"
		},
		{
			"bufferView":13,
			"componentType":5126,
			"count":897,
			"type":"VEC2"
		},
		{
			"bufferView":14,
			"componentType":5126,
			"count":897,
			"type":"VEC2"
		},
		{
			"bufferView":15,
			"componentType":5123,
			"count":2871,
			"type":"SCALAR"
		},
		{
			"bufferView":18,
			"componentType":5126,
			"count":16,
			"max":[
				0.8942221999168396,
				6.672462463378906,
				-9.817619323730469
			],
			"min":[
				-0.8942298293113708,
				4.884010314941406,
				-9.817619323730469
			],
			"type":"VEC3"
		},
		{
			"bufferView":19,
			"componentType":5126,
			"count":16,
			"type":"VEC3"
		},
		{
			"bufferView":20,
			"componentType":5126,
			"count":16,
			"type":"VEC2"
		},
		{
			"bufferView":21,
			"componentType":5126,
			"count":16,
			"type":"VEC2"
		},
		{
			"bufferView":22,
			"componentType":5126,
			"count":16,
			"type":"VEC2"
		},
		{
			"bufferView":23,
			"componentType":5126,
			"count":16,
			"type":"VEC2"
		},
		{
			"bufferView":24,
			"componentType":5123,
			"count":42,
			"type":"SCALAR"
		},
		{
			"bufferView":25,
			"componentType":5126,
			"count":8,
			"max":[
				3.9567270278930664,
				4.940816879272461,
				-7.879321098327637
			],
			"min":[
				-3.956742525100708,
				2.987844467163086,
				-8.868060111999512
			],
			"type":"VEC3"
		},
		{
			"bufferView":26,
			"componentType":5126,
			"count":8,
			"type":"VEC3"
		},
		{
			"bufferView":27,
			"componentType":5126,
			"count":8,
			"type":"VEC2"
		},
		{
			"bufferView":28,
			"componentType":5126,
			"count":8,
			"type":"VEC2"
		},
		{
			"bufferView":29,
			"componentType":5126,
			"count":8,
			"type":"VEC2"
		},
		{
			"bufferView":30,
			"componentType":5126,
			"count":8,
			"type":"VEC2"
		},
		{
			"bufferView":31,
			"componentType":5123,
			"count":12,
			"type":"SCALAR"
		},
		{
			"bufferView":33,
			"componentType":5126,
			"count":558,
			"max":[
				23.291666666666668
			],
			"min":[
				0.08333333333333333
			],
			"type":"SCALAR"
		},
		{
			"bufferView":34,
			"componentType":5126,
			"count":558,
			"type":"VEC3"
		},
		{
			"bufferView":35,
			"componentType":5126,
			"count":558,
			"type":"VEC4"
		}
	],
	"bufferViews":[
		{
			"buffer":0,
			"byteLength":24912,
			"byteOffset":0,
			"target":34962
		},
		{
			"buffer":0,
			"byteLength":24912,
			"byteOffset":24912,
			"target":34962
		},
		{
			"buffer":0,
			"byteLength":16608,
			"byteOffset":49824,
			"target":34962
		},
		{
			"buffer":0,
			"byteLength":16608,
			"byteOffset":66432,
			"target":34962
		},
		{
			"buffer":0,
			"byteLength":16608,
			"byteOffset":83040,
			"target":34962
		},
		{
			"buffer":0,
			"byteLength":16608,
			"byteOffset":99648,
			"target":34962
		},
		{
			"buffer":0,
			"byteLength":12828,
			"byteOffset":116256,
			"target":34963
		},
		{
			"buffer":0,
			"byteLength":57086,
			"byteOffset":129084
		},
		{
			"buffer":0,
			"byteLength":505497,
			"byteOffset":186172
		},
		{
			"buffer":0,
			"byteLength":10764,
			"byteOffset":691672,
			"target":34962
		},
		{
			"buffer":0,
			"byteLength":10764,
			"byteOffset":702436,
			"target":34962
		},
		{
			"buffer":0,
			"byteLength":7176,
			"byteOffset":713200,
			"target":34962
		},
		{
			"buffer":0,
			"byteLength":7176,
			"byteOffset":720376,
			"target":34962
		},
		{
			"buffer":0,
			"byteLength":7176,
			"byteOffset":727552,
			"target":34962
		},
		{
			"buffer":0,
			"byteLength":7176,
			"byteOffset":734728,
			"target":34962
		},
		{
			"buffer":0,
			"byteLength":5742,
			"byteOffset":741904,
			"target":34963
		},
		{
			"buffer":0,
			"byteLength":41093,
			"byteOffset":747648
		},
		{
			"buffer":0,
			"byteLength":240699,
			"byteOffset":788744
		},
		{
			"buffer":0,
			"byteLength":192,
			"byteOffset":1029444,
			"target":34962
		},
		{
			"buffer":0,
			"byteLength":192,
			"byteOffset":1029636,
			"target":34962
		},
		{
			"buffer":0,
			"byteLength":128,
			"byteOffset":1029828,
			"target":34962
		},
		{
			"buffer":0,
			"byteLength":128,
			"byteOffset":1029956,
			"target":34962
		},
		{
			"buffer":0,
			"byteLength":128,
			"byteOffset":1030084,
			"target":34962
		},
		{
			"buffer":0,
			"byteLength":128,
			"byteOffset":1030212,
			"target":34962
		},
		{
			"buffer":0,
			"byteLength":84,
			"byteOffset":1030340,
			"target":34963
		},
		{
			"buffer":0,
			"byteLength":96,
			"byteOffset":1030424,
			"target":34962
		},
		{
			"buffer":0,
			"byteLength":96,
			"byteOffset":1030520,
			"target":34962
		},
		{
			"buffer":0,
			"byteLength":64,
			"byteOffset":1030616,
			"target":34962
		},
		{
			"buffer":0,
			"byteLength":64,
			"byteOffset":1030680,
			"target":34962
		},
		{
			"buffer":0,
			"byteLength":64,
			"byteOffset":1030744,
			"target":34962
		},
		{
			"buffer":0,
			"byteLength":64,
			"byteOffset":1030808,
			"target":34962
		},
		{
			"buffer":0,
			"byteLength":24,
			"byteOffset":1030872,
			"target":34963
		},
		{
			"buffer":0,
			"byteLength":2288,
			"byteOffset":1030896
		},
		{
			"buffer":0,
			"byteLength":2232,
			"byteOffset":1033184
		},
		{
			"buffer":0,
			"byteLength":6696,
			"byteOffset":1035416
		},
		{
			"buffer":0,
			"byteLength":8928,
			"byteOffset":1042112
		}
	],
	"samplers":[
		{
			"magFilter":9729,
			"minFilter":9987
		}
	],
	"buffers":[
		{
			"byteLength":1051040,
			"uri":"data:application/octet-stream;base64,"
		}
	]
}
