{
	"asset":{
		"generator":"Khronos glTF Blender I/O v3.6.28",
		"version":"2.0"
	},
	"scene":0,
	"scenes":[
		{
			"name":"Scene",
			"nodes":[
				0
			]
		}
	],
	"nodes":[
		{
			"mesh":0,
			"name":"Plano",
			"rotation":[
				0.5854848623275757,
				0.3964940011501312,
				-0.3964940309524536,
				0.5854848623275757
			],
			"translation":[
				64.16903686523438,
				0,
				113.55695343017578
			]
		}
	],
	"meshes":[
		{
			"name":"Plano.001",
			"primitives":[
				{
					"attributes":{
						"POSITION":0,
						"NORMAL":1,
						"TEXCOORD_0":2
					},
					"indices":3
				}
			]
		}
	],
	"accessors":[
		{
			"bufferView":0,
			"componentType":5126,
			"count":1242,
			"max":[
				186.7094268798828,
				33.80227279663086,
				2.2206740379333496
			],
			"min":[
				-75.24213409423828,
				-263.4957275390625,
				-10.841934204101562
			],
			"type":"VEC3"
		},
		{
			"bufferView":1,
			"componentType":5126,
			"count":1242,
			"type":"VEC3"
		},
		{
			"bufferView":2,
			"componentType":5126,
			"count":1242,
			"type":"VEC2"
		},
		{
			"bufferView":3,
			"componentType":5123,
			"count":2304,
			"type":"SCALAR"
		}
	],
	"bufferViews":[
		{
			"buffer":0,
			"byteLength":14904,
			"byteOffset":0,
			"target":34962
		},
		{
			"buffer":0,
			"byteLength":14904,
			"byteOffset":14904,
			"target":34962
		},
		{
			"buffer":0,
			"byteLength":9936,
			"byteOffset":29808,
			"target":34962
		},
		{
			"buffer":0,
			"byteLength":4608,
			"byteOffset":39744,
			"target":34963
		}
	],
	"buffers":[
		{
			"byteLength":44352,
			"uri":"data:application/octet-stream;base64,"
		}
	]
}
