{
	"asset":{
		"generator":"Khronos glTF Blender I/O v3.6.28",
		"version":"2.0"
	},
	"scene":0,
	"scenes":[
		{
			"name":"Scene",
			"nodes":[
				0,
				1,
				2,
				3,
				6,
				7,
				8
			]
		}
	],
	"nodes":[
		{
			"name":"Plane_71",
			"scale":[
				1.0754811763763428,
				1.0754811763763428,
				1.0754811763763428
			],
			"translation":[
				-0.002684440463781357,
				0.0011976119130849838,
				-0.0026118792593479156
			]
		},
		{
			"name":"Armature.021_224",
			"rotation":[
				0,
				0.6768788695335388,
				0,
				0.7360944151878357
			],
			"scale":[
				0.9795109629631042,
				0.979511022567749,
				0.9795109629631042
			],
			"translation":[
				-4.271446228027344,
				9.670729637145996,
				8.482083320617676
			]
		},
		{
			"name":"Armature.028_238",
			"rotation":[
				0,
				-0.9799669981002808,
				0,
				0.19916002452373505
			],
			"scale":[
				1.195836067199707,
				1.1958357095718384,
				1.195836067199707
			],
			"translation":[
				-3.9253838062286377,
				9.670729637145996,
				8.176240921020508
			]
		},
		{
			"name":"Armature.029_252",
			"rotation":[
				0,
				-0.6709298491477966,
				0,
				0.7415208220481873
			],
			"scale":[
				0.6758080720901489,
				0.6758080720901489,
				0.6758080720901489
			],
			"translation":[
				-3.226982593536377,
				9.670729637145996,
				8.6839599609375
			]
		},
		{
			"mesh":0,
			"name":"Object_677"
		},
		{
			"mesh":1,
			"name":"Object_678"
		},
		{
			"children":[
				4,
				5
			],
			"name":"Cube.023_503",
			"rotation":[
				0.0026635308749973774,
				-0.11745056509971619,
				0.031084274873137474,
				0.9925885796546936
			],
			"scale":[
				1.4065009355545044,
				1.4065008163452148,
				1.406501054763794
			],
			"translation":[
				0.07381315529346466,
				-0.032930366694927216,
				0.07181799411773682
			]
		},
		{
			"name":"Rocks.001_524",
			"scale":[
				0.20402532815933228,
				0.20402532815933228,
				0.20402532815933228
			],
			"translation":[
				-1.1607837677001953,
				9.509353637695312,
				9.267837524414062
			]
		},
		{
			"name":"Rock.006_529",
			"rotation":[
				0,
				0.6926360130310059,
				0,
				0.7212872505187988
			],
			"scale":[
				0.2528912425041199,
				0.2528911828994751,
				0.2528912425041199
			],
			"translation":[
				-2.844975233078003,
				8.936500549316406,
				-4.4235758781433105
			]
		}
	],
	"materials":[
		{
			"doubleSided":true,
			"name":"Wood_Dark",
			"pbrMetallicRoughness":{
				"baseColorFactor":[
					0.142535999417305,
					0.06472689658403397,
					0.010295799933373928,
					1
				],
				"metallicFactor":0,
				"roughnessFactor":0.7636359930038452
			}
		},
		{
			"doubleSided":true,
			"emissiveFactor":[
				0.46402281522750854,
				0.38478538393974304,
				0.049690812826156616
			],
			"name":"Chest_Metal",
			"pbrMetallicRoughness":{
				"baseColorFactor":[
					0.679373025894165,
					0.4521409869194031,
					0.08328049629926682,
					1
				],
				"roughnessFactor":0.48181799054145813
			}
		}
	],
	"meshes":[
		{
			"name":"Object_114",
			"primitives":[
				{
					"attributes":{
						"POSITION":0,
						"NORMAL":1,
						"TEXCOORD_0":2
					},
					"indices":3,
					"material":0
				}
			]
		},
		{
			"name":"Object_115",
			"primitives":[
				{
					"attributes":{
						"POSITION":4,
						"NORMAL":5,
						"TEXCOORD_0":6
					},
					"indices":7,
					"material":1
				}
			]
		}
	],
	"accessors":[
		{
			"bufferView":0,
			"componentType":5126,
			"count":128,
			"max":[
				0.6289944052696228,
				1.061158299446106,
				0.34155428409576416
			],
			"min":[
				-0.6322305798530579,
				0.003497196827083826,
				-0.34617599844932556
			],
			"type":"VEC3"
		},
		{
			"bufferView":1,
			"componentType":5126,
			"count":128,
			"type":"VEC3"
		},
		{
			"bufferView":2,
			"componentType":5126,
			"count":128,
			"type":"VEC2"
		},
		{
			"bufferView":3,
			"componentType":5123,
			"count":192,
			"type":"SCALAR"
		},
		{
			"bufferView":4,
			"componentType":5126,
			"count":738,
			"max":[
				0.6870309710502625,
				1.0761339664459229,
				0.40227842330932617
			],
			"min":[
				-0.6918790936470032,
				0.003497196827083826,
				-0.42703405022621155
			],
			"type":"VEC3"
		},
		{
			"bufferView":5,
			"componentType":5126,
			"count":738,
			"type":"VEC3"
		},
		{
			"bufferView":6,
			"componentType":5126,
			"count":738,
			"type":"VEC2"
		},
		{
			"bufferView":7,
			"componentType":5123,
			"count":1068,
			"type":"SCALAR"
		}
	],
	"bufferViews":[
		{
			"buffer":0,
			"byteLength":1536,
			"byteOffset":0,
			"target":34962
		},
		{
			"buffer":0,
			"byteLength":1536,
			"byteOffset":1536,
			"target":34962
		},
		{
			"buffer":0,
			"byteLength":1024,
			"byteOffset":3072,
			"target":34962
		},
		{
			"buffer":0,
			"byteLength":384,
			"byteOffset":4096,
			"target":34963
		},
		{
			"buffer":0,
			"byteLength":8856,
			"byteOffset":4480,
			"target":34962
		},
		{
			"buffer":0,
			"byteLength":8856,
			"byteOffset":13336,
			"target":34962
		},
		{
			"buffer":0,
			"byteLength":5904,
			"byteOffset":22192,
			"target":34962
		},
		{
			"buffer":0,
			"byteLength":2136,
			"byteOffset":28096,
			"target":34963
		}
	],
	"buffers":[
		{
			"byteLength":30232,
			"uri":"data:application/octet-stream;base64,"
		}
	]
}
