{
	"asset":{
		"generator":"Khronos glTF Blender I/O v3.6.28",
		"version":"2.0"
	},
	"scene":0,
	"scenes":[
		{
			"name":"Scene",
			"nodes":[
				0
			]
		}
	],
	"nodes":[
		{
			"mesh":0,
			"name":"Cubo",
			"rotation":[
				0,
				0.4291810989379883,
				0,
				0.9032184481620789
			],
			"scale":[
				0.18749362230300903,
				0.18749362230300903,
				0.18749362230300903
			],
			"translation":[
				-0.01573478803038597,
				3.418163776397705,
				-40.18197250366211
			]
		}
	],
	"animations":[
		{
			"channels":[
				{
					"sampler":0,
					"target":{
						"node":0,
						"path":"translation"
					}
				},
				{
					"sampler":1,
					"target":{
						"node":0,
						"path":"rotation"
					}
				}
			],
			"name":"CuboAction",
			"samplers":[
				{
					"input":47,
					"interpolation":"LINEAR",
					"output":48
				},
				{
					"input":49,
					"interpolation":"STEP",
					"output":50
				}
			]
		}
	],
	"materials":[
		{
			"doubleSided":true,
			"name":"body_grey.001",
			"pbrMetallicRoughness":{
				"baseColorFactor":[
					0.3564000129699707,
					0.42869099974632263,
					0.577580988407135,
					1
				],
				"metallicFactor":0
			}
		},
		{
			"doubleSided":true,
			"name":"body_red.001",
			"pbrMetallicRoughness":{
				"baseColorFactor":[
					0.5647119879722595,
					0.019382400438189507,
					0.011612200178205967,
					1
				],
				"metallicFactor":0
			}
		},
		{
			"doubleSided":true,
			"name":"windows.001",
			"pbrMetallicRoughness":{
				"baseColorFactor":[
					0.09530749917030334,
					0.11697100102901459,
					0.18782100081443787,
					1
				],
				"metallicFactor":0
			}
		},
		{
			"doubleSided":true,
			"name":"flashers_siren_blue.001",
			"pbrMetallicRoughness":{
				"baseColorFactor":[
					0.0003035269910469651,
					0.04666509851813316,
					0.5028859972953796,
					1
				],
				"metallicFactor":0
			}
		},
		{
			"doubleSided":true,
			"name":"body_dark_grey.001",
			"pbrMetallicRoughness":{
				"baseColorFactor":[
					0.09530749917030334,
					0.11697100102901459,
					0.18782100081443787,
					1
				],
				"metallicFactor":0
			}
		},
		{
			"doubleSided":true,
			"name":"headlights.001",
			"pbrMetallicRoughness":{
				"baseColorFactor":[
					0.6583750247955322,
					0.6239609718322754,
					0.791297972202301,
					1
				],
				"metallicFactor":0
			}
		},
		{
			"doubleSided":true,
			"name":"body_black.001",
			"pbrMetallicRoughness":{
				"baseColorFactor":[
					0.0009105809731408954,
					0,
					0,
					1
				],
				"metallicFactor":0
			}
		},
		{
			"doubleSided":true,
			"name":"body_dark_yellow.001",
			"pbrMetallicRoughness":{
				"baseColorFactor":[
					0.7083759903907776,
					0.27467700839042664,
					0.006995410192757845,
					1
				],
				"metallicFactor":0
			}
		},
		{
			"doubleSided":true,
			"name":"body_white.001",
			"pbrMetallicRoughness":{
				"baseColorFactor":[
					1,
					0.9473069906234741,
					1,
					1
				],
				"metallicFactor":0
			}
		},
		{
			"doubleSided":true,
			"name":"rear_lights.001",
			"pbrMetallicRoughness":{
				"baseColorFactor":[
					0.32314300537109375,
					0.0018211599672213197,
					0.01444379985332489,
					1
				],
				"metallicFactor":0
			}
		},
		{
			"doubleSided":true,
			"name":"tires.001",
			"pbrMetallicRoughness":{
				"baseColorFactor":[
					0.0009105809731408954,
					0,
					0,
					1
				],
				"metallicFactor":0
			}
		},
		{
			"doubleSided":true,
			"name":"wheels.001",
			"pbrMetallicRoughness":{
				"baseColorFactor":[
					0.6583750247955322,
					0.6239609718322754,
					0.791297972202301,
					1
				],
				"metallicFactor":0
			}
		}
	],
	"meshes":[
		{
			"name":"Cubo.001",
			"primitives":[
				{
					"attributes":{
						"POSITION":0,
						"NORMAL":1,
						"TEXCOORD_0":2
					},
					"indices":3,
					"material":0
				},
				{
					"attributes":{
						"POSITION":4,
						"NORMAL":5,
						"TEXCOORD_0":6
					},
					"indices":7,
					"material":1
				},
				{
					"attributes":{
						"POSITION":8,
						"NORMAL":9,
						"TEXCOORD_0":10
					},
					"indices":11,
					"material":2
				},
				{
					"attributes":{
						"POSITION":12,
						"NORMAL":13,
						"TEXCOORD_0":14
					},
					"indices":15,
					"material":3
				},
				{
					"attributes":{
						"POSITION":16,
						"NORMAL":17,
						"TEXCOORD_0":18
					},
					"indices":19,
					"material":4
				},
				{
					"attributes":{
						"POSITION":20,
						"NORMAL":21,
						"TEXCOORD_0":22
					},
					"indices":23,
					"material":5
				},
				{
					"attributes":{
						"POSITION":24,
						"NORMAL":25,
						"TEXCOORD_0":26
					},
					"indices":27,
					"material":6
				},
				{
					"attributes":{
						"POSITION":28,
						"NORMAL":29,
						"TEXCOORD_0":30
					},
					"indices":31,
					"material":7
				},
				{
					"attributes":{
						"POSITION":32,
						"NORMAL":33,
						"TEXCOORD_0":34
					},
					"indices":35,
					"material":8
				},
				{
					"attributes":{
						"POSITION":36,
						"NORMAL":37,
						"TEXCOORD_0":38
					},
					"indices":11,
					"material":9
				},
				{
					"attributes":{
						"POSITION":39,
						"NORMAL":40,
						"TEXCOORD_0":41
					},
					"indices":42,
					"material":10
				},
				{
					"attributes":{
						"POSITION":43,
						"NORMAL":44,
						"TEXCOORD_0":45
					},
					"indices":46,
					"material":11
				}
			]
		}
	],
	"accessors":[
		{
			"bufferView":0,
			"componentType":5126,
			"count":4708,
			"max":[
				36.78741455078125,
				2.694194793701172,
				12.539026260375977
			],
			"min":[
				-12.688226699829102,
				-17.164133071899414,
				-31.955493927001953
			],
			"type":"VEC3"
		},
		{
			"bufferView":1,
			"componentType":5126,
			"count":4708,
			"type":"VEC3"
		},
		{
			"bufferView":2,
			"componentType":5126,
			"count":4708,
			"type":"VEC2"
		},
		{
			"bufferView":3,
			"componentType":5123,
			"count":7005,
			"type":"SCALAR"
		},
		{
			"bufferView":4,
			"componentType":5126,
			"count":815,
			"max":[
				35.99356460571289,
				-1.5986318588256836,
				11.881546020507812
			],
			"min":[
				-11.89437198638916,
				-17.16413116455078,
				-31.16164207458496
			],
			"type":"VEC3"
		},
		{
			"bufferView":5,
			"componentType":5126,
			"count":815,
			"type":"VEC3"
		},
		{
			"bufferView":6,
			"componentType":5126,
			"count":815,
			"type":"VEC2"
		},
		{
			"bufferView":7,
			"componentType":5123,
			"count":1392,
			"type":"SCALAR"
		},
		{
			"bufferView":8,
			"componentType":5126,
			"count":40,
			"max":[
				9.376887321472168,
				-2.8715124130249023,
				11.586698532104492
			],
			"min":[
				-11.224762916564941,
				-7.192728042602539,
				-9.477736473083496
			],
			"type":"VEC3"
		},
		{
			"bufferView":9,
			"componentType":5126,
			"count":40,
			"type":"VEC3"
		},
		{
			"bufferView":10,
			"componentType":5126,
			"count":40,
			"type":"VEC2"
		},
		{
			"bufferView":11,
			"componentType":5123,
			"count":60,
			"type":"SCALAR"
		},
		{
			"bufferView":12,
			"componentType":5126,
			"count":49,
			"max":[
				2.720302104949951,
				-0.9803829193115234,
				5.807063102722168
			],
			"min":[
				-5.324643135070801,
				-2.142735481262207,
				-3.4688684940338135
			],
			"type":"VEC3"
		},
		{
			"bufferView":13,
			"componentType":5126,
			"count":49,
			"type":"VEC3"
		},
		{
			"bufferView":14,
			"componentType":5126,
			"count":49,
			"type":"VEC2"
		},
		{
			"bufferView":15,
			"componentType":5123,
			"count":75,
			"type":"SCALAR"
		},
		{
			"bufferView":16,
			"componentType":5126,
			"count":280,
			"max":[
				15.584965705871582,
				-5.913304328918457,
				0.1641249656677246
			],
			"min":[
				1.9959378242492676,
				-15.802987098693848,
				-14.270318984985352
			],
			"type":"VEC3"
		},
		{
			"bufferView":17,
			"componentType":5126,
			"count":280,
			"type":"VEC3"
		},
		{
			"bufferView":18,
			"componentType":5126,
			"count":280,
			"type":"VEC2"
		},
		{
			"bufferView":19,
			"componentType":5123,
			"count":420,
			"type":"SCALAR"
		},
		{
			"bufferView":20,
			"componentType":5126,
			"count":32,
			"max":[
				-3.0843257904052734,
				-13.364974021911621,
				11.083277702331543
			],
			"min":[
				-11.397226333618164,
				-14.020994186401367,
				0.9309687614440918
			],
			"type":"VEC3"
		},
		{
			"bufferView":21,
			"componentType":5126,
			"count":32,
			"type":"VEC3"
		},
		{
			"bufferView":22,
			"componentType":5126,
			"count":32,
			"type":"VEC2"
		},
		{
			"bufferView":23,
			"componentType":5123,
			"count":48,
			"type":"SCALAR"
		},
		{
			"bufferView":24,
			"componentType":5126,
			"count":17,
			"max":[
				-3.979703426361084,
				-8.855707168579102,
				9.37086296081543
			],
			"min":[
				-9.875866889953613,
				-14.37816333770752,
				2.1334118843078613
			],
			"type":"VEC3"
		},
		{
			"bufferView":25,
			"componentType":5126,
			"count":17,
			"type":"VEC3"
		},
		{
			"bufferView":26,
			"componentType":5126,
			"count":17,
			"type":"VEC2"
		},
		{
			"bufferView":27,
			"componentType":5123,
			"count":36,
			"type":"SCALAR"
		},
		{
			"bufferView":28,
			"componentType":5126,
			"count":72,
			"max":[
				35.77635192871094,
				-13.364974021911621,
				11.404589653015137
			],
			"min":[
				-11.658990859985352,
				-15.076345443725586,
				-30.807052612304688
			],
			"type":"VEC3"
		},
		{
			"bufferView":29,
			"componentType":5126,
			"count":72,
			"type":"VEC3"
		},
		{
			"bufferView":30,
			"componentType":5126,
			"count":72,
			"type":"VEC2"
		},
		{
			"bufferView":31,
			"componentType":5123,
			"count":108,
			"type":"SCALAR"
		},
		{
			"bufferView":32,
			"componentType":5126,
			"count":70,
			"max":[
				35.993560791015625,
				-10.818502426147461,
				11.745170593261719
			],
			"min":[
				-11.894371032714844,
				-12.484369277954102,
				-31.16164207458496
			],
			"type":"VEC3"
		},
		{
			"bufferView":33,
			"componentType":5126,
			"count":70,
			"type":"VEC3"
		},
		{
			"bufferView":34,
			"componentType":5126,
			"count":70,
			"type":"VEC2"
		},
		{
			"bufferView":35,
			"componentType":5123,
			"count":108,
			"type":"SCALAR"
		},
		{
			"bufferView":36,
			"componentType":5126,
			"count":40,
			"max":[
				35.77635192871094,
				-13.118377685546875,
				-20.069324493408203
			],
			"min":[
				26.939414978027344,
				-14.009642601013184,
				-30.80705451965332
			],
			"type":"VEC3"
		},
		{
			"bufferView":37,
			"componentType":5126,
			"count":40,
			"type":"VEC3"
		},
		{
			"bufferView":38,
			"componentType":5126,
			"count":40,
			"type":"VEC2"
		},
		{
			"bufferView":39,
			"componentType":5126,
			"count":472,
			"max":[
				32.39453125,
				-13.907552719116211,
				9.33812141418457
			],
			"min":[
				-8.956936836242676,
				-18.28728485107422,
				-28.21561050415039
			],
			"type":"VEC3"
		},
		{
			"bufferView":40,
			"componentType":5126,
			"count":472,
			"type":"VEC3"
		},
		{
			"bufferView":41,
			"componentType":5126,
			"count":472,
			"type":"VEC2"
		},
		{
			"bufferView":42,
			"componentType":5123,
			"count":720,
			"type":"SCALAR"
		},
		{
			"bufferView":43,
			"componentType":5126,
			"count":682,
			"max":[
				31.961326599121094,
				-14.376821517944336,
				8.94920539855957
			],
			"min":[
				-8.523730278015137,
				-17.818016052246094,
				-27.82669448852539
			],
			"type":"VEC3"
		},
		{
			"bufferView":44,
			"componentType":5126,
			"count":682,
			"type":"VEC3"
		},
		{
			"bufferView":45,
			"componentType":5126,
			"count":682,
			"type":"VEC2"
		},
		{
			"bufferView":46,
			"componentType":5123,
			"count":1104,
			"type":"SCALAR"
		},
		{
			"bufferView":47,
			"componentType":5126,
			"count":210,
			"max":[
				8.75
			],
			"min":[
				0.041666666666666664
			],
			"type":"SCALAR"
		},
		{
			"bufferView":48,
			"componentType":5126,
			"count":210,
			"type":"VEC3"
		},
		{
			"bufferView":49,
			"componentType":5126,
			"count":2,
			"max":[
				8.75
			],
			"min":[
				0.041666666666666664
			],
			"type":"SCALAR"
		},
		{
			"bufferView":50,
			"componentType":5126,
			"count":2,
			"type":"VEC4"
		}
	],
	"bufferViews":[
		{
			"buffer":0,
			"byteLength":56496,
			"byteOffset":0,
			"target":34962
		},
		{
			"buffer":0,
			"byteLength":56496,
			"byteOffset":56496,
			"target":34962
		},
		{
			"buffer":0,
			"byteLength":37664,
			"byteOffset":112992,
			"target":34962
		},
		{
			"buffer":0,
			"byteLength":14010,
			"byteOffset":150656,
			"target":34963
		},
		{
			"buffer":0,
			"byteLength":9780,
			"byteOffset":164668,
			"target":34962
		},
		{
			"buffer":0,
			"byteLength":9780,
			"byteOffset":174448,
			"target":34962
		},
		{
			"buffer":0,
			"byteLength":6520,
			"byteOffset":184228,
			"target":34962
		},
		{
			"buffer":0,
			"byteLength":2784,
			"byteOffset":190748,
			"target":34963
		},
		{
			"buffer":0,
			"byteLength":480,
			"byteOffset":193532,
			"target":34962
		},
		{
			"buffer":0,
			"byteLength":480,
			"byteOffset":194012,
			"target":34962
		},
		{
			"buffer":0,
			"byteLength":320,
			"byteOffset":194492,
			"target":34962
		},
		{
			"buffer":0,
			"byteLength":120,
			"byteOffset":194812,
			"target":34963
		},
		{
			"buffer":0,
			"byteLength":588,
			"byteOffset":194932,
			"target":34962
		},
		{
			"buffer":0,
			"byteLength":588,
			"byteOffset":195520,
			"target":34962
		},
		{
			"buffer":0,
			"byteLength":392,
			"byteOffset":196108,
			"target":34962
		},
		{
			"buffer":0,
			"byteLength":150,
			"byteOffset":196500,
			"target":34963
		},
		{
			"buffer":0,
			"byteLength":3360,
			"byteOffset":196652,
			"target":34962
		},
		{
			"buffer":0,
			"byteLength":3360,
			"byteOffset":200012,
			"target":34962
		},
		{
			"buffer":0,
			"byteLength":2240,
			"byteOffset":203372,
			"target":34962
		},
		{
			"buffer":0,
			"byteLength":840,
			"byteOffset":205612,
			"target":34963
		},
		{
			"buffer":0,
			"byteLength":384,
			"byteOffset":206452,
			"target":34962
		},
		{
			"buffer":0,
			"byteLength":384,
			"byteOffset":206836,
			"target":34962
		},
		{
			"buffer":0,
			"byteLength":256,
			"byteOffset":207220,
			"target":34962
		},
		{
			"buffer":0,
			"byteLength":96,
			"byteOffset":207476,
			"target":34963
		},
		{
			"buffer":0,
			"byteLength":204,
			"byteOffset":207572,
			"target":34962
		},
		{
			"buffer":0,
			"byteLength":204,
			"byteOffset":207776,
			"target":34962
		},
		{
			"buffer":0,
			"byteLength":136,
			"byteOffset":207980,
			"target":34962
		},
		{
			"buffer":0,
			"byteLength":72,
			"byteOffset":208116,
			"target":34963
		},
		{
			"buffer":0,
			"byteLength":864,
			"byteOffset":208188,
			"target":34962
		},
		{
			"buffer":0,
			"byteLength":864,
			"byteOffset":209052,
			"target":34962
		},
		{
			"buffer":0,
			"byteLength":576,
			"byteOffset":209916,
			"target":34962
		},
		{
			"buffer":0,
			"byteLength":216,
			"byteOffset":210492,
			"target":34963
		},
		{
			"buffer":0,
			"byteLength":840,
			"byteOffset":210708,
			"target":34962
		},
		{
			"buffer":0,
			"byteLength":840,
			"byteOffset":211548,
			"target":34962
		},
		{
			"buffer":0,
			"byteLength":560,
			"byteOffset":212388,
			"target":34962
		},
		{
			"buffer":0,
			"byteLength":216,
			"byteOffset":212948,
			"target":34963
		},
		{
			"buffer":0,
			"byteLength":480,
			"byteOffset":213164,
			"target":34962
		},
		{
			"buffer":0,
			"byteLength":480,
			"byteOffset":213644,
			"target":34962
		},
		{
			"buffer":0,
			"byteLength":320,
			"byteOffset":214124,
			"target":34962
		},
		{
			"buffer":0,
			"byteLength":5664,
			"byteOffset":214444,
			"target":34962
		},
		{
			"buffer":0,
			"byteLength":5664,
			"byteOffset":220108,
			"target":34962
		},
		{
			"buffer":0,
			"byteLength":3776,
			"byteOffset":225772,
			"target":34962
		},
		{
			"buffer":0,
			"byteLength":1440,
			"byteOffset":229548,
			"target":34963
		},
		{
			"buffer":0,
			"byteLength":8184,
			"byteOffset":230988,
			"target":34962
		},
		{
			"buffer":0,
			"byteLength":8184,
			"byteOffset":239172,
			"target":34962
		},
		{
			"buffer":0,
			"byteLength":5456,
			"byteOffset":247356,
			"target":34962
		},
		{
			"buffer":0,
			"byteLength":2208,
			"byteOffset":252812,
			"target":34963
		},
		{
			"buffer":0,
			"byteLength":840,
			"byteOffset":255020
		},
		{
			"buffer":0,
			"byteLength":2520,
			"byteOffset":255860
		},
		{
			"buffer":0,
			"byteLength":8,
			"byteOffset":258380
		},
		{
			"buffer":0,
			"byteLength":32,
			"byteOffset":258388
		}
	],
	"buffers":[
		{
			"byteLength":258420,
			"uri":"data:application/octet-stream;base64,"
		}
	]
}
