{
	"asset":{
		"generator":"Khronos glTF Blender I/O v3.6.28",
		"version":"2.0"
	},
	"extensionsUsed":[
		"KHR_materials_emissive_strength",
		"KHR_materials_specular"
	],
	"scene":0,
	"scenes":[
		{
			"name":"Scene",
			"nodes":[
				0,
				1,
				2,
				3,
				4,
				5,
				6,
				7,
				8,
				9,
				10,
				11
			]
		}
	],
	"nodes":[
		{
			"name":"Car_2",
			"rotation":[
				0,
				-1,
				0,
				4.371138828673793e-08
			],
			"scale":[
				0.009999999776482582,
				0.010000001639127731,
				0.010000001639127731
			],
			"translation":[
				0.2171737551689148,
				0.2509857416152954,
				-0.014037176966667175
			]
		},
		{
			"mesh":0,
			"name":"Car_2_Mat.5_2_0",
			"rotation":[
				0,
				-1,
				0,
				4.371138828673793e-08
			],
			"scale":[
				0.009999999776482582,
				0.010000001639127731,
				0.010000001639127731
			],
			"translation":[
				0.2171737551689148,
				0.2509857416152954,
				-0.014037176966667175
			]
		},
		{
			"mesh":1,
			"name":"Car_2_Mat.1_0",
			"rotation":[
				0,
				-1,
				0,
				4.371138828673793e-08
			],
			"scale":[
				0.009999999776482582,
				0.010000001639127731,
				0.010000001639127731
			],
			"translation":[
				0.2171737551689148,
				0.2509857416152954,
				-0.014037176966667175
			]
		},
		{
			"mesh":2,
			"name":"Car_2_Mat.4_0",
			"rotation":[
				0,
				-1,
				0,
				4.371138828673793e-08
			],
			"scale":[
				0.009999999776482582,
				0.010000001639127731,
				0.010000001639127731
			],
			"translation":[
				0.2171737551689148,
				0.2509857416152954,
				-0.014037176966667175
			]
		},
		{
			"name":"wheel_1_5",
			"rotation":[
				0,
				-1,
				0,
				4.371138828673793e-08
			],
			"scale":[
				0.009999999776482582,
				0.010000001639127731,
				0.010000001639127731
			],
			"translation":[
				-0.6943987607955933,
				-0.3149433732032776,
				1.6068123579025269
			]
		},
		{
			"mesh":3,
			"name":"wheel_1_5_Mat.5_0",
			"scale":[
				0.009999999776482582,
				0.010000001639127731,
				0.010000001639127731
			],
			"translation":[
				-0.6943987607955933,
				-0.3149433732032776,
				1.6068123579025269
			]
		},
		{
			"name":"wheel_3",
			"rotation":[
				0,
				-1,
				0,
				4.371138828673793e-08
			],
			"scale":[
				0.009999999776482582,
				0.010000001639127731,
				0.010000001639127731
			],
			"translation":[
				-0.6943989992141724,
				-0.29640036821365356,
				-1.4080793857574463
			]
		},
		{
			"mesh":4,
			"name":"wheel_3_Mat.5_0",
			"rotation":[
				0,
				-1,
				0,
				4.371138828673793e-08
			],
			"scale":[
				0.009999999776482582,
				0.010000001639127731,
				0.010000001639127731
			],
			"translation":[
				-0.6943989992141724,
				-0.29640036821365356,
				-1.4080793857574463
			]
		},
		{
			"name":"wheel_1_6",
			"scale":[
				0.009999999776482582,
				0.010000001639127731,
				0.010000001639127731
			],
			"translation":[
				1.1082870960235596,
				-0.29640036821365356,
				-1.4080793857574463
			]
		},
		{
			"mesh":5,
			"name":"wheel_1_6_Mat.5_0",
			"scale":[
				0.009999999776482582,
				0.010000001639127731,
				0.010000001639127731
			],
			"translation":[
				1.1082870960235596,
				-0.29640036821365356,
				-1.4080793857574463
			]
		},
		{
			"name":"wheel_2_4",
			"scale":[
				0.009999999776482582,
				0.010000001639127731,
				0.010000001639127731
			],
			"translation":[
				1.1535484790802002,
				-0.3149433732032776,
				1.6068118810653687
			]
		},
		{
			"mesh":6,
			"name":"wheel_2_4_Mat.5_0",
			"scale":[
				0.009999999776482582,
				0.010000001639127731,
				0.010000001639127731
			],
			"translation":[
				1.1535484790802002,
				-0.3149433732032776,
				1.6068118810653687
			]
		}
	],
	"animations":[
		{
			"channels":[
				{
					"sampler":0,
					"target":{
						"node":5,
						"path":"rotation"
					}
				}
			],
			"name":"acelerar",
			"samplers":[
				{
					"input":25,
					"interpolation":"LINEAR",
					"output":26
				}
			]
		},
		{
			"channels":[
				{
					"sampler":0,
					"target":{
						"node":11,
						"path":"rotation"
					}
				}
			],
			"name":"acelerar.001",
			"samplers":[
				{
					"input":25,
					"interpolation":"LINEAR",
					"output":27
				}
			]
		}
	],
	"materials":[
		{
			"doubleSided":true,
			"name":"Mat.5_2",
			"pbrMetallicRoughness":{
				"baseColorTexture":{
					"index":0
				},
				"metallicFactor":0.517123281955719,
				"roughnessFactor":0
			}
		},
		{
			"doubleSided":true,
			"emissiveFactor":[
				0,
				0.21666699647903442,
				1
			],
			"extensions":{
				"KHR_materials_emissive_strength":{
					"emissiveStrength":3.950000047683716
				}
			},
			"name":"Mat.1",
			"pbrMetallicRoughness":{
				"baseColorFactor":[
					0.8931233286857605,
					1,
					0.8470692038536072,
					1
				],
				"metallicFactor":0,
				"roughnessFactor":0.6000000238418579
			}
		},
		{
			"doubleSided":true,
			"emissiveFactor":[
				1,
				0,
				0
			],
			"extensions":{
				"KHR_materials_emissive_strength":{
					"emissiveStrength":3.950000047683716
				}
			},
			"name":"Mat.4",
			"pbrMetallicRoughness":{
				"baseColorFactor":[
					0.800000011920929,
					0.01600000075995922,
					0.01600000075995922,
					1
				],
				"metallicFactor":0,
				"roughnessFactor":0.6000000238418579
			}
		},
		{
			"doubleSided":true,
			"extensions":{
				"KHR_materials_specular":{
					"specularColorFactor":[
						0,
						0,
						0
					]
				}
			},
			"name":"Mat.5",
			"pbrMetallicRoughness":{
				"baseColorTexture":{
					"index":1
				},
				"metallicFactor":0
			}
		}
	],
	"meshes":[
		{
			"name":"Car_2_Mat.5_2_0",
			"primitives":[
				{
					"attributes":{
						"POSITION":0,
						"NORMAL":1,
						"TEXCOORD_0":2
					},
					"indices":3,
					"material":0
				}
			]
		},
		{
			"name":"Car_2_Mat.1_0",
			"primitives":[
				{
					"attributes":{
						"POSITION":4,
						"NORMAL":5,
						"TEXCOORD_0":6
					},
					"indices":7,
					"material":1
				}
			]
		},
		{
			"name":"Car_2_Mat.4_0",
			"primitives":[
				{
					"attributes":{
						"POSITION":8,
						"NORMAL":9,
						"TEXCOORD_0":10
					},
					"indices":11,
					"material":2
				}
			]
		},
		{
			"name":"wheel_1_5_Mat.5_0",
			"primitives":[
				{
					"attributes":{
						"POSITION":12,
						"NORMAL":13,
						"TEXCOORD_0":14
					},
					"indices":15,
					"material":3
				}
			]
		},
		{
			"name":"wheel_3_Mat.5_0",
			"primitives":[
				{
					"attributes":{
						"POSITION":16,
						"NORMAL":17,
						"TEXCOORD_0":18
					},
					"indices":15,
					"material":3
				}
			]
		},
		{
			"name":"wheel_1_6_Mat.5_0",
			"primitives":[
				{
					"attributes":{
						"POSITION":19,
						"NORMAL":20,
						"TEXCOORD_0":21
					},
					"indices":15,
					"material":3
				}
			]
		},
		{
			"name":"wheel_2_4_Mat.5_0",
			"primitives":[
				{
					"attributes":{
						"POSITION":22,
						"NORMAL":23,
						"TEXCOORD_0":24
					},
					"indices":15,
					"material":3
				}
			]
		}
	],
	"textures":[
		{
			"sampler":0,
			"source":0
		},
		{
			"sampler":0,
			"source":1
		}
	],
	"images":[
		{
			"bufferView":4,
			"mimeType":"image/png",
			"name":"Mat"
		},
		{
			"bufferView":17,
			"mimeType":"image/png",
			"name":"Mat"
		}
	],
	"accessors":[
		{
			"bufferView":0,
			"componentType":5126,
			"count":3991,
			"max":[
				117.34751892089844,
				73.89461517333984,
				268.9914245605469
			],
			"min":[
				-117.34751892089844,
				-73.89461517333984,
				-268.9914245605469
			],
			"type":"VEC3"
		},
		{
			"bufferView":1,
			"componentType":5126,
			"count":3991,
			"type":"VEC3"
		},
		{
			"bufferView":2,
			"componentType":5126,
			"count":3991,
			"type":"VEC2"
		},
		{
			"bufferView":3,
			"componentType":5123,
			"count":11148,
			"type":"SCALAR"
		},
		{
			"bufferView":5,
			"componentType":5126,
			"count":82,
			"max":[
				86.5145263671875,
				-7.472029685974121,
				-228.4427490234375
			],
			"min":[
				-86.5145263671875,
				-55.021846771240234,
				-244.29489135742188
			],
			"type":"VEC3"
		},
		{
			"bufferView":6,
			"componentType":5126,
			"count":82,
			"type":"VEC3"
		},
		{
			"bufferView":7,
			"componentType":5126,
			"count":82,
			"type":"VEC2"
		},
		{
			"bufferView":8,
			"componentType":5123,
			"count":192,
			"type":"SCALAR"
		},
		{
			"bufferView":9,
			"componentType":5126,
			"count":147,
			"max":[
				75.44705963134766,
				15.440703392028809,
				251.18466186523438
			],
			"min":[
				-75.44705963134766,
				-36.504859924316406,
				234.14801025390625
			],
			"type":"VEC3"
		},
		{
			"bufferView":10,
			"componentType":5126,
			"count":147,
			"type":"VEC3"
		},
		{
			"bufferView":11,
			"componentType":5126,
			"count":147,
			"type":"VEC2"
		},
		{
			"bufferView":12,
			"componentType":5123,
			"count":294,
			"type":"SCALAR"
		},
		{
			"bufferView":13,
			"componentType":5126,
			"count":152,
			"max":[
				17.91141700744629,
				38.87277603149414,
				39.43604278564453
			],
			"min":[
				-17.91141700744629,
				-38.87277603149414,
				-39.43604278564453
			],
			"type":"VEC3"
		},
		{
			"bufferView":14,
			"componentType":5126,
			"count":152,
			"type":"VEC3"
		},
		{
			"bufferView":15,
			"componentType":5126,
			"count":152,
			"type":"VEC2"
		},
		{
			"bufferView":16,
			"componentType":5123,
			"count":432,
			"type":"SCALAR"
		},
		{
			"bufferView":18,
			"componentType":5126,
			"count":152,
			"max":[
				19.41597557067871,
				42.138092041015625,
				42.7486686706543
			],
			"min":[
				-19.41597557067871,
				-42.138092041015625,
				-42.7486686706543
			],
			"type":"VEC3"
		},
		{
			"bufferView":19,
			"componentType":5126,
			"count":152,
			"type":"VEC3"
		},
		{
			"bufferView":20,
			"componentType":5126,
			"count":152,
			"type":"VEC2"
		},
		{
			"bufferView":21,
			"componentType":5126,
			"count":152,
			"max":[
				19.41597557067871,
				42.138092041015625,
				42.7486686706543
			],
			"min":[
				-19.41597557067871,
				-42.138092041015625,
				-42.7486686706543
			],
			"type":"VEC3"
		},
		{
			"bufferView":22,
			"componentType":5126,
			"count":152,
			"type":"VEC3"
		},
		{
			"bufferView":23,
			"componentType":5126,
			"count":152,
			"type":"VEC2"
		},
		{
			"bufferView":24,
			"componentType":5126,
			"count":152,
			"max":[
				17.91141700744629,
				38.87277603149414,
				39.43604278564453
			],
			"min":[
				-17.91141700744629,
				-38.87277603149414,
				-39.43604278564453
			],
			"type":"VEC3"
		},
		{
			"bufferView":25,
			"componentType":5126,
			"count":152,
			"type":"VEC3"
		},
		{
			"bufferView":26,
			"componentType":5126,
			"count":152,
			"type":"VEC2"
		},
		{
			"bufferView":27,
			"componentType":5126,
			"count":30,
			"max":[
				1.25
			],
			"min":[
				0.041666666666666664
			],
			"type":"SCALAR"
		},
		{
			"bufferView":28,
			"componentType":5126,
			"count":30,
			"type":"VEC4"
		},
		{
			"bufferView":29,
			"componentType":5126,
			"count":30,
			"type":"VEC4"
		}
	],
	"bufferViews":[
		{
			"buffer":0,
			"byteLength":47892,
			"byteOffset":0,
			"target":34962
		},
		{
			"buffer":0,
			"byteLength":47892,
			"byteOffset":47892,
			"target":34962
		},
		{
			"buffer":0,
			"byteLength":31928,
			"byteOffset":95784,
			"target":34962
		},
		{
			"buffer":0,
			"byteLength":22296,
			"byteOffset":127712,
			"target":34963
		},
		{
			"buffer":0,
			"byteLength":810827,
			"byteOffset":150008
		},
		{
			"buffer":0,
			"byteLength":984,
			"byteOffset":960836,
			"target":34962
		},
		{
			"buffer":0,
			"byteLength":984,
			"byteOffset":961820,
			"target":34962
		},
		{
			"buffer":0,
			"byteLength":656,
			"byteOffset":962804,
			"target":34962
		},
		{
			"buffer":0,
			"byteLength":384,
			"byteOffset":963460,
			"target":34963
		},
		{
			"buffer":0,
			"byteLength":1764,
			"byteOffset":963844,
			"target":34962
		},
		{
			"buffer":0,
			"byteLength":1764,
			"byteOffset":965608,
			"target":34962
		},
		{
			"buffer":0,
			"byteLength":1176,
			"byteOffset":967372,
			"target":34962
		},
		{
			"buffer":0,
			"byteLength":588,
			"byteOffset":968548,
			"target":34963
		},
		{
			"buffer":0,
			"byteLength":1824,
			"byteOffset":969136,
			"target":34962
		},
		{
			"buffer":0,
			"byteLength":1824,
			"byteOffset":970960,
			"target":34962
		},
		{
			"buffer":0,
			"byteLength":1216,
			"byteOffset":972784,
			"target":34962
		},
		{
			"buffer":0,
			"byteLength":864,
			"byteOffset":974000,
			"target":34963
		},
		{
			"buffer":0,
			"byteLength":733318,
			"byteOffset":974864
		},
		{
			"buffer":0,
			"byteLength":1824,
			"byteOffset":1708184,
			"target":34962
		},
		{
			"buffer":0,
			"byteLength":1824,
			"byteOffset":1710008,
			"target":34962
		},
		{
			"buffer":0,
			"byteLength":1216,
			"byteOffset":1711832,
			"target":34962
		},
		{
			"buffer":0,
			"byteLength":1824,
			"byteOffset":1713048,
			"target":34962
		},
		{
			"buffer":0,
			"byteLength":1824,
			"byteOffset":1714872,
			"target":34962
		},
		{
			"buffer":0,
			"byteLength":1216,
			"byteOffset":1716696,
			"target":34962
		},
		{
			"buffer":0,
			"byteLength":1824,
			"byteOffset":1717912,
			"target":34962
		},
		{
			"buffer":0,
			"byteLength":1824,
			"byteOffset":1719736,
			"target":34962
		},
		{
			"buffer":0,
			"byteLength":1216,
			"byteOffset":1721560,
			"target":34962
		},
		{
			"buffer":0,
			"byteLength":120,
			"byteOffset":1722776
		},
		{
			"buffer":0,
			"byteLength":480,
			"byteOffset":1722896
		},
		{
			"buffer":0,
			"byteLength":480,
			"byteOffset":1723376
		}
	],
	"samplers":[
		{
			"magFilter":9729,
			"minFilter":9987
		}
	],
	"buffers":[
		{
			"byteLength":1723856,
			"uri":"data:application/octet-stream;base64,"
		}
	]
}
