{
	"asset":{
		"generator":"Khronos glTF Blender I/O v3.6.28",
		"version":"2.0"
	},
	"scene":0,
	"scenes":[
		{
			"name":"Scene",
			"nodes":[
				0
			]
		}
	],
	"nodes":[
		{
			"mesh":0,
			"name":"Cubo",
			"rotation":[
				0,
				-0.07276689261198044,
				0,
				0.997348964214325
			],
			"scale":[
				20.241416931152344,
				20.241416931152344,
				20.241416931152344
			],
			"translation":[
				-0.1674986481666565,
				0.00041134655475616455,
				29.645313262939453
			]
		}
	],
	"meshes":[
		{
			"name":"Cubo",
			"primitives":[
				{
					"attributes":{
						"POSITION":0,
						"NORMAL":1,
						"TEXCOORD_0":2
					},
					"indices":3
				}
			]
		}
	],
	"accessors":[
		{
			"bufferView":0,
			"componentType":5126,
			"count":767,
			"max":[
				7.665508270263672,
				1.0770343542099,
				9.181224822998047
			],
			"min":[
				-10.060018539428711,
				-1,
				-9.264989852905273
			],
			"type":"VEC3"
		},
		{
			"bufferView":1,
			"componentType":5126,
			"count":767,
			"type":"VEC3"
		},
		{
			"bufferView":2,
			"componentType":5126,
			"count":767,
			"type":"VEC2"
		},
		{
			"bufferView":3,
			"componentType":5123,
			"count":1380,
			"type":"SCALAR"
		}
	],
	"bufferViews":[
		{
			"buffer":0,
			"byteLength":9204,
			"byteOffset":0,
			"target":34962
		},
		{
			"buffer":0,
			"byteLength":9204,
			"byteOffset":9204,
			"target":34962
		},
		{
			"buffer":0,
			"byteLength":6136,
			"byteOffset":18408,
			"target":34962
		},
		{
			"buffer":0,
			"byteLength":2760,
			"byteOffset":24544,
			"target":34963
		}
	],
	"buffers":[
		{
			"byteLength":27304,
			"uri":"data:application/octet-stream;base64,"
		}
	]
}
