{
	"asset":{
		"generator":"Khronos glTF Blender I/O v3.6.28",
		"version":"2.0"
	},
	"scene":0,
	"scenes":[
		{
			"name":"Scene",
			"nodes":[
				0
			]
		}
	],
	"nodes":[
		{
			"mesh":0,
			"name":"Tor\u00f3ide",
			"scale":[
				2.336604118347168,
				2.336604118347168,
				2.336604118347168
			]
		}
	],
	"materials":[
		{
			"alphaMode":"BLEND",
			"doubleSided":true,
			"name":"Materiais.027",
			"pbrMetallicRoughness":{
				"baseColorFactor":[
					0.7605009078979492,
					0.8000000715255737,
					0.002012429991737008,
					0.46917808055877686
				],
				"metallicFactor":0,
				"roughnessFactor":0.5
			}
		}
	],
	"meshes":[
		{
			"name":"Tor\u00f3ide",
			"primitives":[
				{
					"attributes":{
						"POSITION":0,
						"NORMAL":1,
						"TEXCOORD_0":2
					},
					"indices":3,
					"material":0
				}
			]
		}
	],
	"accessors":[
		{
			"bufferView":0,
			"componentType":5126,
			"count":637,
			"max":[
				1.8873541355133057,
				0.10699287056922913,
				1.8873541355133057
			],
			"min":[
				-1.8873541355133057,
				-0.10699287056922913,
				-1.8873541355133057
			],
			"type":"VEC3"
		},
		{
			"bufferView":1,
			"componentType":5126,
			"count":637,
			"type":"VEC3"
		},
		{
			"bufferView":2,
			"componentType":5126,
			"count":637,
			"type":"VEC2"
		},
		{
			"bufferView":3,
			"componentType":5123,
			"count":3456,
			"type":"SCALAR"
		}
	],
	"bufferViews":[
		{
			"buffer":0,
			"byteLength":7644,
			"byteOffset":0,
			"target":34962
		},
		{
			"buffer":0,
			"byteLength":7644,
			"byteOffset":7644,
			"target":34962
		},
		{
			"buffer":0,
			"byteLength":5096,
			"byteOffset":15288,
			"target":34962
		},
		{
			"buffer":0,
			"byteLength":6912,
			"byteOffset":20384,
			"target":34963
		}
	],
	"buffers":[
		{
			"byteLength":27296,
			"uri":"data:application/octet-stream;base64,"
		}
	]
}
