{
	"asset":{
		"generator":"Khronos glTF Blender I/O v3.6.28",
		"version":"2.0"
	},
	"extensionsUsed":[
		"KHR_materials_unlit"
	],
	"scene":0,
	"scenes":[
		{
			"name":"Scene",
			"nodes":[
				0,
				1,
				2,
				3,
				4,
				5,
				6,
				7,
				8,
				9,
				10,
				11,
				12,
				13,
				14,
				15,
				16,
				17,
				18
			]
		}
	],
	"nodes":[
		{
			"name":"hd_01_03_road_hd_01_0"
		},
		{
			"mesh":0,
			"name":"hd_07_015_hd_07_2_0",
			"rotation":[
				-0.70710688829422,
				0,
				0,
				0.7071066498756409
			],
			"scale":[
				0.009999999776482582,
				0.009999999776482582,
				0.009999999776482582
			]
		},
		{
			"mesh":1,
			"name":"hd_10_08_hd_10_0",
			"rotation":[
				-0.70710688829422,
				0,
				0,
				0.7071066498756409
			],
			"scale":[
				0.009999999776482582,
				0.009999998845160007,
				0.009999998845160007
			]
		},
		{
			"mesh":2,
			"name":"hd_10_09_hd_10_0",
			"rotation":[
				-0.70710688829422,
				0,
				0,
				0.7071066498756409
			],
			"scale":[
				0.009999999776482582,
				0.009999998845160007,
				0.009999998845160007
			]
		},
		{
			"mesh":3,
			"name":"hd_sky_sky_hd_0",
			"rotation":[
				-0.70710688829422,
				0,
				0,
				0.7071066498756409
			],
			"scale":[
				0.009999999776482582,
				0.009999998845160007,
				0.009999998845160007
			]
		},
		{
			"name":"map_daoju_02 (3)",
			"rotation":[
				0,
				-0.9999143481254578,
				0,
				0.01308958325535059
			],
			"scale":[
				0.00600000424310565,
				0.010000001639127731,
				0.01000000536441803
			],
			"translation":[
				-1.2841999530792236,
				0.08712001144886017,
				-2.351400375366211
			]
		},
		{
			"name":"daoju_02.002",
			"rotation":[
				-0.009255733340978622,
				-0.7070462107658386,
				-0.7070462107658386,
				0.009255727753043175
			],
			"scale":[
				0.006000003311783075,
				0.01000000350177288,
				0.010000002570450306
			],
			"translation":[
				-1.2841999530792236,
				0.08712001144886017,
				-2.351400375366211
			]
		},
		{
			"mesh":4,
			"name":"daoju_02_map_daoju_02_0.002",
			"rotation":[
				-0.009255733340978622,
				-0.7070462107658386,
				-0.7070462107658386,
				0.009255727753043175
			],
			"scale":[
				0.006000003311783075,
				0.01000000350177288,
				0.010000002570450306
			],
			"translation":[
				-1.2841999530792236,
				0.08712001144886017,
				-2.351400375366211
			]
		},
		{
			"name":"daoju_02_1.002",
			"rotation":[
				-0.009255733340978622,
				-0.7070462107658386,
				-0.7070462107658386,
				0.009255727753043175
			],
			"scale":[
				0.006000003311783075,
				0.01000000350177288,
				0.010000002570450306
			],
			"translation":[
				-1.2841999530792236,
				0.08712001144886017,
				-2.351400375366211
			]
		},
		{
			"mesh":5,
			"name":"daoju_02_1__0.002",
			"rotation":[
				-0.009255733340978622,
				-0.7070462107658386,
				-0.7070462107658386,
				0.009255727753043175
			],
			"scale":[
				0.006000003311783075,
				0.01000000350177288,
				0.010000002570450306
			],
			"translation":[
				-1.2841999530792236,
				0.08712001144886017,
				-2.351400375366211
			]
		},
		{
			"name":"map_daoju_02 (10)",
			"rotation":[
				0.004311744589358568,
				0.9956881403923035,
				-0.06526082009077072,
				0.06578446179628372
			],
			"scale":[
				0.01000000350177288,
				0.020000003278255463,
				0.01000000536441803
			],
			"translation":[
				-1.6014999151229858,
				0.0723000094294548,
				-2.4658005237579346
			]
		},
		{
			"name":"daoju_02.008",
			"rotation":[
				-0.04346780478954315,
				0.7502041459083557,
				0.657911479473114,
				0.049565546214580536
			],
			"scale":[
				0.010000000707805157,
				0.020000001415610313,
				0.010000001639127731
			],
			"translation":[
				-1.6014999151229858,
				0.0723000094294548,
				-2.4658005237579346
			]
		},
		{
			"mesh":6,
			"name":"daoju_02_map_daoju_02_0.008",
			"rotation":[
				-0.04346780478954315,
				0.7502041459083557,
				0.657911479473114,
				0.049565546214580536
			],
			"scale":[
				0.010000000707805157,
				0.020000001415610313,
				0.010000001639127731
			],
			"translation":[
				-1.6014999151229858,
				0.0723000094294548,
				-2.4658005237579346
			]
		},
		{
			"name":"daoju_02_1.008",
			"rotation":[
				-0.04346780478954315,
				0.7502041459083557,
				0.657911479473114,
				0.049565546214580536
			],
			"scale":[
				0.010000000707805157,
				0.020000001415610313,
				0.010000001639127731
			],
			"translation":[
				-1.6014999151229858,
				0.0723000094294548,
				-2.4658005237579346
			]
		},
		{
			"mesh":7,
			"name":"daoju_02_1__0.008",
			"rotation":[
				-0.04346780478954315,
				0.7502041459083557,
				0.657911479473114,
				0.049565546214580536
			],
			"scale":[
				0.010000000707805157,
				0.020000001415610313,
				0.010000001639127731
			],
			"translation":[
				-1.6014999151229858,
				0.0723000094294548,
				-2.4658005237579346
			]
		},
		{
			"name":"GameObject",
			"rotation":[
				0,
				-0.6123611330986023,
				0,
				0.7905781865119934
			],
			"scale":[
				0.0313480868935585,
				0.031348105520009995,
				0.03134807571768761
			],
			"translation":[
				-2.6570000648498535,
				1.725000262260437,
				-19.84300422668457
			]
		},
		{
			"name":"barrier_item_ht_fc",
			"rotation":[
				-0.5590232610702515,
				-0.4330046772956848,
				-0.4330046772956848,
				0.5590232014656067
			],
			"scale":[
				0.0313480868935585,
				0.031348101794719696,
				0.031348083168268204
			],
			"translation":[
				-2.6570000648498535,
				1.725000262260437,
				-19.84300422668457
			]
		},
		{
			"mesh":8,
			"name":"barrier_item_ht_fc_ht_08_1_0",
			"rotation":[
				-0.5590232610702515,
				-0.4330046772956848,
				-0.4330046772956848,
				0.5590232014656067
			],
			"scale":[
				0.0313480868935585,
				0.031348101794719696,
				0.031348083168268204
			],
			"translation":[
				-2.6570000648498535,
				1.725000262260437,
				-19.84300422668457
			]
		},
		{
			"mesh":9,
			"name":"Plano",
			"scale":[
				-37.05541229248047,
				-37.05541229248047,
				-37.05541229248047
			],
			"translation":[
				0,
				0.20278945565223694,
				0
			]
		}
	],
	"materials":[
		{
			"alphaCutoff":0.5,
			"alphaMode":"MASK",
			"doubleSided":true,
			"extensions":{
				"KHR_materials_unlit":{}
			},
			"name":"hd_07_2",
			"pbrMetallicRoughness":{
				"baseColorTexture":{
					"index":0,
					"texCoord":0
				},
				"metallicFactor":0,
				"roughnessFactor":0.9
			}
		},
		{
			"doubleSided":true,
			"extensions":{
				"KHR_materials_unlit":{}
			},
			"name":"hd_06",
			"pbrMetallicRoughness":{
				"baseColorTexture":{
					"index":1,
					"texCoord":0
				},
				"metallicFactor":0,
				"roughnessFactor":0.9
			}
		},
		{
			"doubleSided":true,
			"extensions":{
				"KHR_materials_unlit":{}
			},
			"name":"hd_03",
			"pbrMetallicRoughness":{
				"baseColorTexture":{
					"index":2,
					"texCoord":0
				},
				"metallicFactor":0,
				"roughnessFactor":0.9
			}
		},
		{
			"doubleSided":true,
			"extensions":{
				"KHR_materials_unlit":{}
			},
			"name":"hd_10",
			"pbrMetallicRoughness":{
				"baseColorTexture":{
					"index":3,
					"texCoord":0
				},
				"metallicFactor":0,
				"roughnessFactor":0.9
			}
		},
		{
			"doubleSided":true,
			"extensions":{
				"KHR_materials_unlit":{}
			},
			"name":"sky_hd",
			"pbrMetallicRoughness":{
				"baseColorTexture":{
					"index":4,
					"texCoord":0
				},
				"metallicFactor":0,
				"roughnessFactor":0.9
			}
		},
		{
			"doubleSided":true,
			"extensions":{
				"KHR_materials_unlit":{}
			},
			"name":"map_daoju_02.002",
			"pbrMetallicRoughness":{
				"baseColorTexture":{
					"index":5,
					"texCoord":0
				},
				"metallicFactor":0,
				"roughnessFactor":0.9
			}
		},
		{
			"alphaMode":"BLEND",
			"doubleSided":true,
			"extensions":{
				"KHR_materials_unlit":{}
			},
			"name":"road_hd_001__6",
			"pbrMetallicRoughness":{
				"baseColorFactor":[
					1,
					1,
					1,
					0
				],
				"metallicFactor":0,
				"roughnessFactor":0.9
			}
		},
		{
			"doubleSided":true,
			"extensions":{
				"KHR_materials_unlit":{}
			},
			"name":"ht_08_1",
			"pbrMetallicRoughness":{
				"baseColorTexture":{
					"index":6,
					"texCoord":0
				},
				"metallicFactor":0,
				"roughnessFactor":0.9
			}
		},
		{
			"alphaMode":"BLEND",
			"doubleSided":true,
			"extensions":{
				"KHR_materials_unlit":{}
			},
			"name":"hd_04_2",
			"pbrMetallicRoughness":{
				"baseColorFactor":[
					1,
					1,
					1,
					0.5566949248313904
				],
				"baseColorTexture":{
					"index":7,
					"texCoord":0
				},
				"metallicFactor":0,
				"roughnessFactor":0.9
			}
		}
	],
	"meshes":[
		{
			"name":"hd_07_015_hd_07_2_0",
			"primitives":[
				{
					"attributes":{
						"POSITION":0,
						"NORMAL":1,
						"TEXCOORD_0":2,
						"TEXCOORD_1":3
					},
					"indices":4,
					"material":0
				},
				{
					"attributes":{
						"POSITION":5,
						"NORMAL":6,
						"TEXCOORD_0":7,
						"TEXCOORD_1":8
					},
					"indices":9,
					"material":1
				},
				{
					"attributes":{
						"POSITION":10,
						"NORMAL":11,
						"TEXCOORD_0":12,
						"TEXCOORD_1":13
					},
					"indices":14,
					"material":2
				}
			]
		},
		{
			"name":"hd_10_08_hd_10_0",
			"primitives":[
				{
					"attributes":{
						"POSITION":15,
						"NORMAL":16,
						"TEXCOORD_0":17,
						"TEXCOORD_1":18,
						"TEXCOORD_2":19
					},
					"indices":20,
					"material":3
				}
			]
		},
		{
			"name":"hd_10_09_hd_10_0",
			"primitives":[
				{
					"attributes":{
						"POSITION":21,
						"NORMAL":22,
						"TEXCOORD_0":23,
						"TEXCOORD_1":24,
						"TEXCOORD_2":25
					},
					"indices":26,
					"material":3
				}
			]
		},
		{
			"name":"hd_sky_sky_hd_0",
			"primitives":[
				{
					"attributes":{
						"POSITION":27,
						"NORMAL":28,
						"TEXCOORD_0":29
					},
					"indices":30,
					"material":4
				}
			]
		},
		{
			"name":"daoju_02_map_daoju_02_0.008",
			"primitives":[
				{
					"attributes":{
						"POSITION":31,
						"NORMAL":32,
						"TEXCOORD_0":33
					},
					"indices":34,
					"material":5
				}
			]
		},
		{
			"name":"daoju_02_1__0.008",
			"primitives":[
				{
					"attributes":{
						"POSITION":35,
						"NORMAL":36,
						"TEXCOORD_0":37
					},
					"indices":38,
					"material":6
				}
			]
		},
		{
			"name":"daoju_02_map_daoju_02_0.014",
			"primitives":[
				{
					"attributes":{
						"POSITION":39,
						"NORMAL":40,
						"TEXCOORD_0":41
					},
					"indices":34,
					"material":5
				}
			]
		},
		{
			"name":"daoju_02_1__0.014",
			"primitives":[
				{
					"attributes":{
						"POSITION":42,
						"NORMAL":43,
						"TEXCOORD_0":44
					},
					"indices":38,
					"material":6
				}
			]
		},
		{
			"name":"barrier_item_ht_fc_ht_08_1_0",
			"primitives":[
				{
					"attributes":{
						"POSITION":45,
						"NORMAL":46,
						"TEXCOORD_0":47
					},
					"indices":48,
					"material":7
				}
			]
		},
		{
			"name":"Plano",
			"primitives":[
				{
					"attributes":{
						"POSITION":49,
						"NORMAL":50,
						"TEXCOORD_0":51
					},
					"indices":52,
					"material":8
				}
			]
		}
	],
	"textures":[
		{
			"sampler":0,
			"source":0
		},
		{
			"sampler":0,
			"source":1
		},
		{
			"sampler":0,
			"source":2
		},
		{
			"sampler":0,
			"source":3
		},
		{
			"sampler":0,
			"source":4
		},
		{
			"sampler":0,
			"source":5
		},
		{
			"sampler":0,
			"source":6
		},
		{
			"sampler":0,
			"source":7
		}
	],
	"images":[
		{
			"bufferView":5,
			"mimeType":"image/png",
			"name":"hd_07_2_baseColor"
		},
		{
			"bufferView":11,
			"mimeType":"image/png",
			"name":"hd_06_baseColor"
		},
		{
			"bufferView":17,
			"mimeType":"image/png",
			"name":"hd_03_baseColor"
		},
		{
			"bufferView":24,
			"mimeType":"image/png",
			"name":"hd_10_baseColor"
		},
		{
			"bufferView":35,
			"mimeType":"image/png",
			"name":"sky_hd_baseColor"
		},
		{
			"bufferView":40,
			"mimeType":"image/png",
			"name":"map_daoju_02_baseColor"
		},
		{
			"bufferView":55,
			"mimeType":"image/png",
			"name":"ht_08_1_baseColor"
		},
		{
			"bufferView":60,
			"mimeType":"image/png",
			"name":"hd_04_baseColor"
		}
	],
	"accessors":[
		{
			"bufferView":0,
			"componentType":5126,
			"count":2360,
			"max":[
				3140.884765625,
				3393.137939453125,
				299.4388732910156
			],
			"min":[
				-3090.54052734375,
				-2911.075439453125,
				-116.36073303222656
			],
			"type":"VEC3"
		},
		{
			"bufferView":1,
			"componentType":5126,
			"count":2360,
			"type":"VEC3"
		},
		{
			"bufferView":2,
			"componentType":5126,
			"count":2360,
			"type":"VEC2"
		},
		{
			"bufferView":3,
			"componentType":5126,
			"count":2360,
			"type":"VEC2"
		},
		{
			"bufferView":4,
			"componentType":5123,
			"count":3768,
			"type":"SCALAR"
		},
		{
			"bufferView":6,
			"componentType":5126,
			"count":1041,
			"max":[
				2387.594970703125,
				2870.75048828125,
				65.31963348388672
			],
			"min":[
				-2379.134765625,
				-1974.69970703125,
				-44.818458557128906
			],
			"type":"VEC3"
		},
		{
			"bufferView":7,
			"componentType":5126,
			"count":1041,
			"type":"VEC3"
		},
		{
			"bufferView":8,
			"componentType":5126,
			"count":1041,
			"type":"VEC2"
		},
		{
			"bufferView":9,
			"componentType":5126,
			"count":1041,
			"type":"VEC2"
		},
		{
			"bufferView":10,
			"componentType":5123,
			"count":3933,
			"type":"SCALAR"
		},
		{
			"bufferView":12,
			"componentType":5126,
			"count":430,
			"max":[
				2379.130615234375,
				2893.133056640625,
				107.95661926269531
			],
			"min":[
				-2467.662841796875,
				-1961.3980712890625,
				39.34496307373047
			],
			"type":"VEC3"
		},
		{
			"bufferView":13,
			"componentType":5126,
			"count":430,
			"type":"VEC3"
		},
		{
			"bufferView":14,
			"componentType":5126,
			"count":430,
			"type":"VEC2"
		},
		{
			"bufferView":15,
			"componentType":5126,
			"count":430,
			"type":"VEC2"
		},
		{
			"bufferView":16,
			"componentType":5123,
			"count":1176,
			"type":"SCALAR"
		},
		{
			"bufferView":18,
			"componentType":5126,
			"count":49,
			"max":[
				-246.9846954345703,
				1081.298095703125,
				106.54029846191406
			],
			"min":[
				-266.9300842285156,
				1037.4285888671875,
				37.2126350402832
			],
			"type":"VEC3"
		},
		{
			"bufferView":19,
			"componentType":5126,
			"count":49,
			"type":"VEC3"
		},
		{
			"bufferView":20,
			"componentType":5126,
			"count":49,
			"type":"VEC2"
		},
		{
			"bufferView":21,
			"componentType":5126,
			"count":49,
			"type":"VEC2"
		},
		{
			"bufferView":22,
			"componentType":5126,
			"count":49,
			"type":"VEC2"
		},
		{
			"bufferView":23,
			"componentType":5123,
			"count":120,
			"type":"SCALAR"
		},
		{
			"bufferView":25,
			"componentType":5126,
			"count":1048,
			"max":[
				3000.50146484375,
				2497.0849609375,
				223.42498779296875
			],
			"min":[
				-859.8248901367188,
				-796.5336303710938,
				13.383066177368164
			],
			"type":"VEC3"
		},
		{
			"bufferView":26,
			"componentType":5126,
			"count":1048,
			"type":"VEC3"
		},
		{
			"bufferView":27,
			"componentType":5126,
			"count":1048,
			"type":"VEC2"
		},
		{
			"bufferView":28,
			"componentType":5126,
			"count":1048,
			"type":"VEC2"
		},
		{
			"bufferView":29,
			"componentType":5126,
			"count":1048,
			"type":"VEC2"
		},
		{
			"bufferView":30,
			"componentType":5123,
			"count":2943,
			"type":"SCALAR"
		},
		{
			"bufferView":31,
			"componentType":5126,
			"count":72,
			"max":[
				3853.7529296875,
				3605.0595703125,
				1904.6905517578125
			],
			"min":[
				-3615.68212890625,
				-3863.155029296875,
				-42.01922607421875
			],
			"type":"VEC3"
		},
		{
			"bufferView":32,
			"componentType":5126,
			"count":72,
			"type":"VEC3"
		},
		{
			"bufferView":33,
			"componentType":5126,
			"count":72,
			"type":"VEC2"
		},
		{
			"bufferView":34,
			"componentType":5123,
			"count":288,
			"type":"SCALAR"
		},
		{
			"bufferView":36,
			"componentType":5126,
			"count":47,
			"max":[
				1.353601336479187,
				1.4739251136779785,
				0.7050435543060303
			],
			"min":[
				-1.4612925052642822,
				-1.4739254713058472,
				0.021437998861074448
			],
			"type":"VEC3"
		},
		{
			"bufferView":37,
			"componentType":5126,
			"count":47,
			"type":"VEC3"
		},
		{
			"bufferView":38,
			"componentType":5126,
			"count":47,
			"type":"VEC2"
		},
		{
			"bufferView":39,
			"componentType":5123,
			"count":120,
			"type":"SCALAR"
		},
		{
			"bufferView":41,
			"componentType":5126,
			"count":18,
			"max":[
				1.353601336479187,
				1.4739251136779785,
				0.6930738091468811
			],
			"min":[
				-1.4612925052642822,
				-1.4739254713058472,
				0.08111154288053513
			],
			"type":"VEC3"
		},
		{
			"bufferView":42,
			"componentType":5126,
			"count":18,
			"type":"VEC3"
		},
		{
			"bufferView":43,
			"componentType":5126,
			"count":18,
			"type":"VEC2"
		},
		{
			"bufferView":44,
			"componentType":5123,
			"count":48,
			"type":"SCALAR"
		},
		{
			"bufferView":45,
			"componentType":5126,
			"count":47,
			"max":[
				1.353601336479187,
				1.4739251136779785,
				0.7050435543060303
			],
			"min":[
				-1.4612925052642822,
				-1.4739254713058472,
				0.021437998861074448
			],
			"type":"VEC3"
		},
		{
			"bufferView":46,
			"componentType":5126,
			"count":47,
			"type":"VEC3"
		},
		{
			"bufferView":47,
			"componentType":5126,
			"count":47,
			"type":"VEC2"
		},
		{
			"bufferView":48,
			"componentType":5126,
			"count":18,
			"max":[
				1.353601336479187,
				1.4739251136779785,
				0.6930738091468811
			],
			"min":[
				-1.4612925052642822,
				-1.4739254713058472,
				0.08111154288053513
			],
			"type":"VEC3"
		},
		{
			"bufferView":49,
			"componentType":5126,
			"count":18,
			"type":"VEC3"
		},
		{
			"bufferView":50,
			"componentType":5126,
			"count":18,
			"type":"VEC2"
		},
		{
			"bufferView":51,
			"componentType":5126,
			"count":273,
			"max":[
				3.441340446472168,
				24.645503997802734,
				22.073225021362305
			],
			"min":[
				-6.493300437927246,
				-17.254770278930664,
				-23.40200424194336
			],
			"type":"VEC3"
		},
		{
			"bufferView":52,
			"componentType":5126,
			"count":273,
			"type":"VEC3"
		},
		{
			"bufferView":53,
			"componentType":5126,
			"count":273,
			"type":"VEC2"
		},
		{
			"bufferView":54,
			"componentType":5123,
			"count":510,
			"type":"SCALAR"
		},
		{
			"bufferView":56,
			"componentType":5126,
			"count":4,
			"max":[
				1,
				0,
				1
			],
			"min":[
				-1,
				0,
				-1
			],
			"type":"VEC3"
		},
		{
			"bufferView":57,
			"componentType":5126,
			"count":4,
			"type":"VEC3"
		},
		{
			"bufferView":58,
			"componentType":5126,
			"count":4,
			"type":"VEC2"
		},
		{
			"bufferView":59,
			"componentType":5123,
			"count":6,
			"type":"SCALAR"
		}
	],
	"bufferViews":[
		{
			"buffer":0,
			"byteLength":28320,
			"byteOffset":0,
			"target":34962
		},
		{
			"buffer":0,
			"byteLength":28320,
			"byteOffset":28320,
			"target":34962
		},
		{
			"buffer":0,
			"byteLength":18880,
			"byteOffset":56640,
			"target":34962
		},
		{
			"buffer":0,
			"byteLength":18880,
			"byteOffset":75520,
			"target":34962
		},
		{
			"buffer":0,
			"byteLength":7536,
			"byteOffset":94400,
			"target":34963
		},
		{
			"buffer":0,
			"byteLength":564518,
			"byteOffset":101936
		},
		{
			"buffer":0,
			"byteLength":12492,
			"byteOffset":666456,
			"target":34962
		},
		{
			"buffer":0,
			"byteLength":12492,
			"byteOffset":678948,
			"target":34962
		},
		{
			"buffer":0,
			"byteLength":8328,
			"byteOffset":691440,
			"target":34962
		},
		{
			"buffer":0,
			"byteLength":8328,
			"byteOffset":699768,
			"target":34962
		},
		{
			"buffer":0,
			"byteLength":7866,
			"byteOffset":708096,
			"target":34963
		},
		{
			"buffer":0,
			"byteLength":232948,
			"byteOffset":715964
		},
		{
			"buffer":0,
			"byteLength":5160,
			"byteOffset":948912,
			"target":34962
		},
		{
			"buffer":0,
			"byteLength":5160,
			"byteOffset":954072,
			"target":34962
		},
		{
			"buffer":0,
			"byteLength":3440,
			"byteOffset":959232,
			"target":34962
		},
		{
			"buffer":0,
			"byteLength":3440,
			"byteOffset":962672,
			"target":34962
		},
		{
			"buffer":0,
			"byteLength":2352,
			"byteOffset":966112,
			"target":34963
		},
		{
			"buffer":0,
			"byteLength":53289,
			"byteOffset":968464
		},
		{
			"buffer":0,
			"byteLength":588,
			"byteOffset":1021756,
			"target":34962
		},
		{
			"buffer":0,
			"byteLength":588,
			"byteOffset":1022344,
			"target":34962
		},
		{
			"buffer":0,
			"byteLength":392,
			"byteOffset":1022932,
			"target":34962
		},
		{
			"buffer":0,
			"byteLength":392,
			"byteOffset":1023324,
			"target":34962
		},
		{
			"buffer":0,
			"byteLength":392,
			"byteOffset":1023716,
			"target":34962
		},
		{
			"buffer":0,
			"byteLength":240,
			"byteOffset":1024108,
			"target":34963
		},
		{
			"buffer":0,
			"byteLength":493053,
			"byteOffset":1024348
		},
		{
			"buffer":0,
			"byteLength":12576,
			"byteOffset":1517404,
			"target":34962
		},
		{
			"buffer":0,
			"byteLength":12576,
			"byteOffset":1529980,
			"target":34962
		},
		{
			"buffer":0,
			"byteLength":8384,
			"byteOffset":1542556,
			"target":34962
		},
		{
			"buffer":0,
			"byteLength":8384,
			"byteOffset":1550940,
			"target":34962
		},
		{
			"buffer":0,
			"byteLength":8384,
			"byteOffset":1559324,
			"target":34962
		},
		{
			"buffer":0,
			"byteLength":5886,
			"byteOffset":1567708,
			"target":34963
		},
		{
			"buffer":0,
			"byteLength":864,
			"byteOffset":1573596,
			"target":34962
		},
		{
			"buffer":0,
			"byteLength":864,
			"byteOffset":1574460,
			"target":34962
		},
		{
			"buffer":0,
			"byteLength":576,
			"byteOffset":1575324,
			"target":34962
		},
		{
			"buffer":0,
			"byteLength":576,
			"byteOffset":1575900,
			"target":34963
		},
		{
			"buffer":0,
			"byteLength":275247,
			"byteOffset":1576476
		},
		{
			"buffer":0,
			"byteLength":564,
			"byteOffset":1851724,
			"target":34962
		},
		{
			"buffer":0,
			"byteLength":564,
			"byteOffset":1852288,
			"target":34962
		},
		{
			"buffer":0,
			"byteLength":376,
			"byteOffset":1852852,
			"target":34962
		},
		{
			"buffer":0,
			"byteLength":240,
			"byteOffset":1853228,
			"target":34963
		},
		{
			"buffer":0,
			"byteLength":101735,
			"byteOffset":1853468
		},
		{
			"buffer":0,
			"byteLength":216,
			"byteOffset":1955204,
			"target":34962
		},
		{
			"buffer":0,
			"byteLength":216,
			"byteOffset":1955420,
			"target":34962
		},
		{
			"buffer":0,
			"byteLength":144,
			"byteOffset":1955636,
			"target":34962
		},
		{
			"buffer":0,
			"byteLength":96,
			"byteOffset":1955780,
			"target":34963
		},
		{
			"buffer":0,
			"byteLength":564,
			"byteOffset":1955876,
			"target":34962
		},
		{
			"buffer":0,
			"byteLength":564,
			"byteOffset":1956440,
			"target":34962
		},
		{
			"buffer":0,
			"byteLength":376,
			"byteOffset":1957004,
			"target":34962
		},
		{
			"buffer":0,
			"byteLength":216,
			"byteOffset":1957380,
			"target":34962
		},
		{
			"buffer":0,
			"byteLength":216,
			"byteOffset":1957596,
			"target":34962
		},
		{
			"buffer":0,
			"byteLength":144,
			"byteOffset":1957812,
			"target":34962
		},
		{
			"buffer":0,
			"byteLength":3276,
			"byteOffset":1957956,
			"target":34962
		},
		{
			"buffer":0,
			"byteLength":3276,
			"byteOffset":1961232,
			"target":34962
		},
		{
			"buffer":0,
			"byteLength":2184,
			"byteOffset":1964508,
			"target":34962
		},
		{
			"buffer":0,
			"byteLength":1020,
			"byteOffset":1966692,
			"target":34963
		},
		{
			"buffer":0,
			"byteLength":316652,
			"byteOffset":1967712
		},
		{
			"buffer":0,
			"byteLength":48,
			"byteOffset":2284364,
			"target":34962
		},
		{
			"buffer":0,
			"byteLength":48,
			"byteOffset":2284412,
			"target":34962
		},
		{
			"buffer":0,
			"byteLength":32,
			"byteOffset":2284460,
			"target":34962
		},
		{
			"buffer":0,
			"byteLength":12,
			"byteOffset":2284492,
			"target":34963
		},
		{
			"buffer":0,
			"byteLength":33096,
			"byteOffset":2284504
		}
	],
	"samplers":[
		{
			"magFilter":9729,
			"minFilter":9987
		}
	],
	"buffers":[
		{
			"byteLength":2317600,
			"uri":"data:application/octet-stream;base64,"
		}
	]
}
