{
	"asset":{
		"generator":"Khronos glTF Blender I/O v3.6.28",
		"version":"2.0"
	},
	"scene":0,
	"scenes":[
		{
			"name":"Scene",
			"nodes":[
				0
			]
		}
	],
	"nodes":[
		{
			"mesh":0,
			"name":"Tor\u00f3ide.001",
			"rotation":[
				0,
				-1,
				0,
				1.6292068494294654e-07
			]
		}
	],
	"animations":[
		{
			"channels":[
				{
					"sampler":0,
					"target":{
						"node":0,
						"path":"scale"
					}
				}
			],
			"name":"Tor\u00f3ide.001Action",
			"samplers":[
				{
					"input":4,
					"interpolation":"LINEAR",
					"output":5
				}
			]
		}
	],
	"materials":[
		{
			"doubleSided":true,
			"name":"Materiais.001",
			"pbrMetallicRoughness":{
				"baseColorFactor":[
					0.8000000715255737,
					0.5499030947685242,
					0,
					1
				],
				"metallicFactor":0.4554794430732727,
				"roughnessFactor":0.5
			}
		}
	],
	"meshes":[
		{
			"name":"Tor\u00f3ide.001",
			"primitives":[
				{
					"attributes":{
						"POSITION":0,
						"NORMAL":1,
						"TEXCOORD_0":2
					},
					"indices":3,
					"material":0
				}
			]
		}
	],
	"accessors":[
		{
			"bufferView":0,
			"componentType":5126,
			"count":600,
			"max":[
				0.14732764661312103,
				1.6508700847625732,
				1.654897689819336
			],
			"min":[
				-0.1473286896944046,
				-1.6562412977218628,
				-1.6548975706100464
			],
			"type":"VEC3"
		},
		{
			"bufferView":1,
			"componentType":5126,
			"count":600,
			"type":"VEC3"
		},
		{
			"bufferView":2,
			"componentType":5126,
			"count":600,
			"type":"VEC2"
		},
		{
			"bufferView":3,
			"componentType":5123,
			"count":3276,
			"type":"SCALAR"
		},
		{
			"bufferView":4,
			"componentType":5126,
			"count":40,
			"max":[
				1.6666666666666667
			],
			"min":[
				0.041666666666666664
			],
			"type":"SCALAR"
		},
		{
			"bufferView":5,
			"componentType":5126,
			"count":40,
			"type":"VEC3"
		}
	],
	"bufferViews":[
		{
			"buffer":0,
			"byteLength":7200,
			"byteOffset":0,
			"target":34962
		},
		{
			"buffer":0,
			"byteLength":7200,
			"byteOffset":7200,
			"target":34962
		},
		{
			"buffer":0,
			"byteLength":4800,
			"byteOffset":14400,
			"target":34962
		},
		{
			"buffer":0,
			"byteLength":6552,
			"byteOffset":19200,
			"target":34963
		},
		{
			"buffer":0,
			"byteLength":160,
			"byteOffset":25752
		},
		{
			"buffer":0,
			"byteLength":480,
			"byteOffset":25912
		}
	],
	"buffers":[
		{
			"byteLength":26392,
			"uri":"data:application/octet-stream;base64,"
		}
	]
}
