{
	"asset":{
		"generator":"Khronos glTF Blender I/O v3.6.28",
		"version":"2.0"
	},
	"scene":0,
	"scenes":[
		{
			"name":"Scene",
			"nodes":[
				3,
				7
			]
		}
	],
	"nodes":[
		{
			"mesh":0,
			"name":"Object_2"
		},
		{
			"mesh":1,
			"name":"Object_2.001",
			"rotation":[
				0,
				0,
				-1,
				4.284083487959833e-08
			],
			"translation":[
				54.69575119018555,
				0,
				0
			]
		},
		{
			"children":[
				0,
				1
			],
			"name":"mc-stars.obj.cleaner.materialmerger.gles"
		},
		{
			"children":[
				2
			],
			"name":"Sketchfab_model",
			"rotation":[
				-0.49045586585998535,
				0.5093653202056885,
				0.5093654990196228,
				0.4904557168483734
			]
		},
		{
			"mesh":2,
			"name":"Object_2.002"
		},
		{
			"mesh":3,
			"name":"Object_2.003",
			"rotation":[
				0,
				0,
				-1,
				4.284083487959833e-08
			],
			"translation":[
				54.69575119018555,
				0,
				0
			]
		},
		{
			"children":[
				4,
				5
			],
			"name":"mc-stars.obj.cleaner.materialmerger.gles.001"
		},
		{
			"children":[
				6
			],
			"name":"Sketchfab_model.001",
			"rotation":[
				-0.49045586585998535,
				0.5093653202056885,
				0.5093654990196228,
				0.4904557168483734
			],
			"translation":[
				0,
				194.68368530273438,
				0
			]
		}
	],
	"materials":[
		{
			"doubleSided":true,
			"emissiveFactor":[
				1,
				1,
				1
			],
			"name":"star",
			"pbrMetallicRoughness":{
				"baseColorFactor":[
					0.800000011920929,
					0.800000011920929,
					0.800000011920929,
					1
				],
				"metallicFactor":0,
				"roughnessFactor":0.5
			}
		}
	],
	"meshes":[
		{
			"name":"Object_0",
			"primitives":[
				{
					"attributes":{
						"POSITION":0,
						"NORMAL":1
					},
					"indices":2,
					"material":0
				}
			]
		},
		{
			"name":"Object_0.001",
			"primitives":[
				{
					"attributes":{
						"POSITION":3,
						"NORMAL":4
					},
					"indices":2,
					"material":0
				}
			]
		},
		{
			"name":"Object_0.002",
			"primitives":[
				{
					"attributes":{
						"POSITION":5,
						"NORMAL":6
					},
					"indices":2,
					"material":0
				}
			]
		},
		{
			"name":"Object_0.003",
			"primitives":[
				{
					"attributes":{
						"POSITION":7,
						"NORMAL":8
					},
					"indices":2,
					"material":0
				}
			]
		}
	],
	"accessors":[
		{
			"bufferView":0,
			"componentType":5126,
			"count":1735,
			"max":[
				30.866222381591797,
				99.4919662475586,
				94.63392639160156
			],
			"min":[
				-102.83636474609375,
				-98.77445220947266,
				-99.4404067993164
			],
			"type":"VEC3"
		},
		{
			"bufferView":1,
			"componentType":5126,
			"count":1735,
			"type":"VEC3"
		},
		{
			"bufferView":2,
			"componentType":5123,
			"count":2085,
			"type":"SCALAR"
		},
		{
			"bufferView":3,
			"componentType":5126,
			"count":1735,
			"max":[
				30.866222381591797,
				99.4919662475586,
				94.63392639160156
			],
			"min":[
				-102.83636474609375,
				-98.77445220947266,
				-99.4404067993164
			],
			"type":"VEC3"
		},
		{
			"bufferView":4,
			"componentType":5126,
			"count":1735,
			"type":"VEC3"
		},
		{
			"bufferView":5,
			"componentType":5126,
			"count":1735,
			"max":[
				30.866222381591797,
				99.4919662475586,
				94.63392639160156
			],
			"min":[
				-102.83636474609375,
				-98.77445220947266,
				-99.4404067993164
			],
			"type":"VEC3"
		},
		{
			"bufferView":6,
			"componentType":5126,
			"count":1735,
			"type":"VEC3"
		},
		{
			"bufferView":7,
			"componentType":5126,
			"count":1735,
			"max":[
				30.866222381591797,
				99.4919662475586,
				94.63392639160156
			],
			"min":[
				-102.83636474609375,
				-98.77445220947266,
				-99.4404067993164
			],
			"type":"VEC3"
		},
		{
			"bufferView":8,
			"componentType":5126,
			"count":1735,
			"type":"VEC3"
		}
	],
	"bufferViews":[
		{
			"buffer":0,
			"byteLength":20820,
			"byteOffset":0,
			"target":34962
		},
		{
			"buffer":0,
			"byteLength":20820,
			"byteOffset":20820,
			"target":34962
		},
		{
			"buffer":0,
			"byteLength":4170,
			"byteOffset":41640,
			"target":34963
		},
		{
			"buffer":0,
			"byteLength":20820,
			"byteOffset":45812,
			"target":34962
		},
		{
			"buffer":0,
			"byteLength":20820,
			"byteOffset":66632,
			"target":34962
		},
		{
			"buffer":0,
			"byteLength":20820,
			"byteOffset":87452,
			"target":34962
		},
		{
			"buffer":0,
			"byteLength":20820,
			"byteOffset":108272,
			"target":34962
		},
		{
			"buffer":0,
			"byteLength":20820,
			"byteOffset":129092,
			"target":34962
		},
		{
			"buffer":0,
			"byteLength":20820,
			"byteOffset":149912,
			"target":34962
		}
	],
	"buffers":[
		{
			"byteLength":170732,
			"uri":"data:application/octet-stream;base64,"
		}
	]
}
