{
	"asset":{
		"generator":"Khronos glTF Blender I/O v3.6.28",
		"version":"2.0"
	},
	"scene":0,
	"scenes":[
		{
			"name":"Scene",
			"nodes":[
				0,
				1,
				2,
				3,
				4,
				5
			]
		}
	],
	"nodes":[
		{
			"mesh":0,
			"name":"Object_12",
			"rotation":[
				-0.70710688829422,
				0.0003599096671678126,
				0.0003599098417907953,
				0.7071065902709961
			],
			"scale":[
				2.2348825931549072,
				2.2348830699920654,
				2.2348828315734863
			],
			"translation":[
				269.4899597167969,
				0,
				55.18069839477539
			]
		},
		{
			"mesh":1,
			"name":"Object_12.001",
			"rotation":[
				-0.70710688829422,
				0.0003599096671678126,
				0.0003599098417907953,
				0.7071065902709961
			],
			"scale":[
				2.2348825931549072,
				2.2348830699920654,
				2.2348828315734863
			],
			"translation":[
				9.571929931640625,
				0,
				55.16455841064453
			]
		},
		{
			"mesh":2,
			"name":"Object_13",
			"rotation":[
				-0.70710688829422,
				0.0003599096671678126,
				0.0003599098417907953,
				0.7071065902709961
			],
			"scale":[
				2.2348825931549072,
				2.2348830699920654,
				2.2348828315734863
			],
			"translation":[
				269.4899597167969,
				0,
				55.18069839477539
			]
		},
		{
			"mesh":3,
			"name":"Object_13.001",
			"rotation":[
				-0.70710688829422,
				0.0003599096671678126,
				0.0003599098417907953,
				0.7071065902709961
			],
			"scale":[
				2.2348825931549072,
				2.2348830699920654,
				2.2348828315734863
			],
			"translation":[
				9.513519287109375,
				0,
				55.16453170776367
			]
		},
		{
			"mesh":4,
			"name":"Object_14",
			"rotation":[
				-0.70710688829422,
				0.0003599096671678126,
				0.0003599098417907953,
				0.7071065902709961
			],
			"scale":[
				2.2348825931549072,
				2.2348830699920654,
				2.2348828315734863
			],
			"translation":[
				270.7903747558594,
				0,
				55.17937469482422
			]
		},
		{
			"mesh":5,
			"name":"Object_14.001",
			"rotation":[
				-0.70710688829422,
				0.0003599096671678126,
				0.0003599098417907953,
				0.7071065902709961
			],
			"scale":[
				2.2348825931549072,
				2.2348830699920654,
				2.2348828315734863
			],
			"translation":[
				10.87255859375,
				0,
				55.163230895996094
			]
		}
	],
	"materials":[
		{
			"doubleSided":true,
			"name":"Material_6",
			"pbrMetallicRoughness":{
				"baseColorTexture":{
					"index":0
				},
				"metallicFactor":0,
				"roughnessFactor":0.5
			}
		}
	],
	"meshes":[
		{
			"name":"Object_10",
			"primitives":[
				{
					"attributes":{
						"POSITION":0,
						"NORMAL":1,
						"TEXCOORD_0":2
					},
					"indices":3,
					"material":0
				}
			]
		},
		{
			"name":"Object_10.001",
			"primitives":[
				{
					"attributes":{
						"POSITION":4,
						"NORMAL":5,
						"TEXCOORD_0":6
					},
					"indices":3,
					"material":0
				}
			]
		},
		{
			"name":"Object_11",
			"primitives":[
				{
					"attributes":{
						"POSITION":7,
						"NORMAL":8,
						"TEXCOORD_0":9
					},
					"indices":10,
					"material":0
				}
			]
		},
		{
			"name":"Object_11.001",
			"primitives":[
				{
					"attributes":{
						"POSITION":11,
						"NORMAL":12,
						"TEXCOORD_0":13
					},
					"indices":10,
					"material":0
				}
			]
		},
		{
			"name":"Object_12",
			"primitives":[
				{
					"attributes":{
						"POSITION":14,
						"NORMAL":15,
						"TEXCOORD_0":16
					},
					"indices":17,
					"material":0
				}
			]
		},
		{
			"name":"Object_12.001",
			"primitives":[
				{
					"attributes":{
						"POSITION":18,
						"NORMAL":19,
						"TEXCOORD_0":20
					},
					"indices":17,
					"material":0
				}
			]
		}
	],
	"textures":[
		{
			"sampler":0,
			"source":0
		}
	],
	"images":[
		{
			"bufferView":4,
			"mimeType":"image/png",
			"name":"Image_4"
		}
	],
	"accessors":[
		{
			"bufferView":0,
			"componentType":5126,
			"count":8116,
			"max":[
				-88.5350570678711,
				38.144649505615234,
				12.250300407409668
			],
			"min":[
				-130.75750732421875,
				10.072190284729004,
				-1.0853049755096436
			],
			"type":"VEC3"
		},
		{
			"bufferView":1,
			"componentType":5126,
			"count":8116,
			"type":"VEC3"
		},
		{
			"bufferView":2,
			"componentType":5126,
			"count":8116,
			"type":"VEC2"
		},
		{
			"bufferView":3,
			"componentType":5123,
			"count":16614,
			"type":"SCALAR"
		},
		{
			"bufferView":5,
			"componentType":5126,
			"count":8116,
			"max":[
				-88.5350570678711,
				38.144649505615234,
				12.250300407409668
			],
			"min":[
				-130.75750732421875,
				10.072190284729004,
				-1.0853049755096436
			],
			"type":"VEC3"
		},
		{
			"bufferView":6,
			"componentType":5126,
			"count":8116,
			"type":"VEC3"
		},
		{
			"bufferView":7,
			"componentType":5126,
			"count":8116,
			"type":"VEC2"
		},
		{
			"bufferView":8,
			"componentType":5126,
			"count":8098,
			"max":[
				-127.29630279541016,
				38.18444061279297,
				12.250289916992188
			],
			"min":[
				-169.518798828125,
				10.111969947814941,
				-1.0853140354156494
			],
			"type":"VEC3"
		},
		{
			"bufferView":9,
			"componentType":5126,
			"count":8098,
			"type":"VEC3"
		},
		{
			"bufferView":10,
			"componentType":5126,
			"count":8098,
			"type":"VEC2"
		},
		{
			"bufferView":11,
			"componentType":5123,
			"count":16614,
			"type":"SCALAR"
		},
		{
			"bufferView":12,
			"componentType":5126,
			"count":8098,
			"max":[
				-127.29630279541016,
				38.18444061279297,
				12.250289916992188
			],
			"min":[
				-169.518798828125,
				10.111969947814941,
				-1.0853140354156494
			],
			"type":"VEC3"
		},
		{
			"bufferView":13,
			"componentType":5126,
			"count":8098,
			"type":"VEC3"
		},
		{
			"bufferView":14,
			"componentType":5126,
			"count":8098,
			"type":"VEC2"
		},
		{
			"bufferView":15,
			"componentType":5126,
			"count":8194,
			"max":[
				-50.330589294433594,
				38.105831146240234,
				12.250309944152832
			],
			"min":[
				-92.55303192138672,
				10.03335952758789,
				-1.0852960348129272
			],
			"type":"VEC3"
		},
		{
			"bufferView":16,
			"componentType":5126,
			"count":8194,
			"type":"VEC3"
		},
		{
			"bufferView":17,
			"componentType":5126,
			"count":8194,
			"type":"VEC2"
		},
		{
			"bufferView":18,
			"componentType":5123,
			"count":16614,
			"type":"SCALAR"
		},
		{
			"bufferView":19,
			"componentType":5126,
			"count":8194,
			"max":[
				-50.330589294433594,
				38.105831146240234,
				12.250309944152832
			],
			"min":[
				-92.55303192138672,
				10.03335952758789,
				-1.0852960348129272
			],
			"type":"VEC3"
		},
		{
			"bufferView":20,
			"componentType":5126,
			"count":8194,
			"type":"VEC3"
		},
		{
			"bufferView":21,
			"componentType":5126,
			"count":8194,
			"type":"VEC2"
		}
	],
	"bufferViews":[
		{
			"buffer":0,
			"byteLength":97392,
			"byteOffset":0,
			"target":34962
		},
		{
			"buffer":0,
			"byteLength":97392,
			"byteOffset":97392,
			"target":34962
		},
		{
			"buffer":0,
			"byteLength":64928,
			"byteOffset":194784,
			"target":34962
		},
		{
			"buffer":0,
			"byteLength":33228,
			"byteOffset":259712,
			"target":34963
		},
		{
			"buffer":0,
			"byteLength":319917,
			"byteOffset":292940
		},
		{
			"buffer":0,
			"byteLength":97392,
			"byteOffset":612860,
			"target":34962
		},
		{
			"buffer":0,
			"byteLength":97392,
			"byteOffset":710252,
			"target":34962
		},
		{
			"buffer":0,
			"byteLength":64928,
			"byteOffset":807644,
			"target":34962
		},
		{
			"buffer":0,
			"byteLength":97176,
			"byteOffset":872572,
			"target":34962
		},
		{
			"buffer":0,
			"byteLength":97176,
			"byteOffset":969748,
			"target":34962
		},
		{
			"buffer":0,
			"byteLength":64784,
			"byteOffset":1066924,
			"target":34962
		},
		{
			"buffer":0,
			"byteLength":33228,
			"byteOffset":1131708,
			"target":34963
		},
		{
			"buffer":0,
			"byteLength":97176,
			"byteOffset":1164936,
			"target":34962
		},
		{
			"buffer":0,
			"byteLength":97176,
			"byteOffset":1262112,
			"target":34962
		},
		{
			"buffer":0,
			"byteLength":64784,
			"byteOffset":1359288,
			"target":34962
		},
		{
			"buffer":0,
			"byteLength":98328,
			"byteOffset":1424072,
			"target":34962
		},
		{
			"buffer":0,
			"byteLength":98328,
			"byteOffset":1522400,
			"target":34962
		},
		{
			"buffer":0,
			"byteLength":65552,
			"byteOffset":1620728,
			"target":34962
		},
		{
			"buffer":0,
			"byteLength":33228,
			"byteOffset":1686280,
			"target":34963
		},
		{
			"buffer":0,
			"byteLength":98328,
			"byteOffset":1719508,
			"target":34962
		},
		{
			"buffer":0,
			"byteLength":98328,
			"byteOffset":1817836,
			"target":34962
		},
		{
			"buffer":0,
			"byteLength":65552,
			"byteOffset":1916164,
			"target":34962
		}
	],
	"samplers":[
		{
			"magFilter":9729,
			"minFilter":9987
		}
	],
	"buffers":[
		{
			"byteLength":1981716,
			"uri":"data:application/octet-stream;base64,"
		}
	]
}
