{
	"asset":{
		"generator":"Khronos glTF Blender I/O v3.6.28",
		"version":"2.0"
	},
	"scene":0,
	"scenes":[
		{
			"name":"Scene",
			"nodes":[
				12
			]
		}
	],
	"nodes":[
		{
			"mesh":0,
			"name":"polySurface5_wood_0"
		},
		{
			"children":[
				0
			],
			"name":"polySurface5",
			"translation":[
				0,
				-2.68754506111145,
				0
			]
		},
		{
			"mesh":1,
			"name":"polySurface6_metal_0"
		},
		{
			"children":[
				2
			],
			"name":"polySurface6"
		},
		{
			"children":[
				1,
				3
			],
			"name":"group1"
		},
		{
			"mesh":2,
			"name":"polySurface3_metal_0"
		},
		{
			"children":[
				5
			],
			"name":"polySurface3"
		},
		{
			"mesh":3,
			"name":"polySurface4_metal_0"
		},
		{
			"children":[
				7
			],
			"name":"polySurface4"
		},
		{
			"children":[
				6,
				8
			],
			"name":"pCylinder7",
			"translation":[
				0,
				-2.68754506111145,
				0
			]
		},
		{
			"children":[
				4,
				9
			],
			"name":"RootNode"
		},
		{
			"children":[
				10
			],
			"name":"894b581a43644fbfa84999610b09456a.fbx",
			"rotation":[
				0.70710688829422,
				0,
				0,
				0.7071066498756409
			]
		},
		{
			"children":[
				11
			],
			"name":"Sketchfab_model",
			"rotation":[
				-0.70710688829422,
				0,
				0,
				0.7071066498756409
			],
			"scale":[
				0.8862046003341675,
				0.886204719543457,
				0.886204719543457
			]
		}
	],
	"materials":[
		{
			"doubleSided":true,
			"name":"wood",
			"pbrMetallicRoughness":{
				"baseColorFactor":[
					0.1410743147134781,
					0.027930069714784622,
					0.005093519575893879,
					1
				],
				"metallicFactor":0,
				"roughnessFactor":0.6000000238418579
			}
		},
		{
			"doubleSided":true,
			"name":"metal",
			"pbrMetallicRoughness":{
				"baseColorFactor":[
					0.9504075050354004,
					0.5527318120002747,
					0.13455680012702942,
					1
				],
				"metallicFactor":0.5992662906646729,
				"roughnessFactor":0.4923480451107025
			}
		}
	],
	"meshes":[
		{
			"name":"polySurface5_wood_0",
			"primitives":[
				{
					"attributes":{
						"POSITION":0,
						"NORMAL":1,
						"TEXCOORD_0":2
					},
					"indices":3,
					"material":0
				}
			]
		},
		{
			"name":"polySurface6_metal_0",
			"primitives":[
				{
					"attributes":{
						"POSITION":4,
						"NORMAL":5,
						"TEXCOORD_0":6
					},
					"indices":7,
					"material":1
				}
			]
		},
		{
			"name":"polySurface3_metal_0",
			"primitives":[
				{
					"attributes":{
						"POSITION":8,
						"NORMAL":9,
						"TEXCOORD_0":10
					},
					"indices":11,
					"material":1
				}
			]
		},
		{
			"name":"polySurface4_metal_0",
			"primitives":[
				{
					"attributes":{
						"POSITION":12,
						"NORMAL":13,
						"TEXCOORD_0":14
					},
					"indices":11,
					"material":1
				}
			]
		}
	],
	"accessors":[
		{
			"bufferView":0,
			"componentType":5126,
			"count":318,
			"max":[
				0.9778666496276855,
				3.653785228729248,
				0.9300065636634827
			],
			"min":[
				-0.9778667688369751,
				2.68754506111145,
				-0.9300066828727722
			],
			"type":"VEC3"
		},
		{
			"bufferView":1,
			"componentType":5126,
			"count":318,
			"type":"VEC3"
		},
		{
			"bufferView":2,
			"componentType":5126,
			"count":318,
			"type":"VEC2"
		},
		{
			"bufferView":3,
			"componentType":5123,
			"count":480,
			"type":"SCALAR"
		},
		{
			"bufferView":4,
			"componentType":5126,
			"count":402,
			"max":[
				0.8011046051979065,
				3.6177799701690674,
				0.7447955012321472
			],
			"min":[
				-0.7447955012321472,
				0.3079230785369873,
				-0.7447953820228577
			],
			"type":"VEC3"
		},
		{
			"bufferView":5,
			"componentType":5126,
			"count":402,
			"type":"VEC3"
		},
		{
			"bufferView":6,
			"componentType":5126,
			"count":402,
			"type":"VEC2"
		},
		{
			"bufferView":7,
			"componentType":5123,
			"count":624,
			"type":"SCALAR"
		},
		{
			"bufferView":8,
			"componentType":5126,
			"count":152,
			"max":[
				0.08008421957492828,
				6.448996067047119,
				1.2957435846328735
			],
			"min":[
				-0.08008420467376709,
				4.65826416015625,
				0.3529723286628723
			],
			"type":"VEC3"
		},
		{
			"bufferView":9,
			"componentType":5126,
			"count":152,
			"type":"VEC3"
		},
		{
			"bufferView":10,
			"componentType":5126,
			"count":152,
			"type":"VEC2"
		},
		{
			"bufferView":11,
			"componentType":5123,
			"count":228,
			"type":"SCALAR"
		},
		{
			"bufferView":12,
			"componentType":5126,
			"count":152,
			"max":[
				0.08008414506912231,
				6.486324310302734,
				-0.3529489040374756
			],
			"min":[
				-0.08008420467376709,
				4.618048667907715,
				-1.2909255027770996
			],
			"type":"VEC3"
		},
		{
			"bufferView":13,
			"componentType":5126,
			"count":152,
			"type":"VEC3"
		},
		{
			"bufferView":14,
			"componentType":5126,
			"count":152,
			"type":"VEC2"
		}
	],
	"bufferViews":[
		{
			"buffer":0,
			"byteLength":3816,
			"byteOffset":0,
			"target":34962
		},
		{
			"buffer":0,
			"byteLength":3816,
			"byteOffset":3816,
			"target":34962
		},
		{
			"buffer":0,
			"byteLength":2544,
			"byteOffset":7632,
			"target":34962
		},
		{
			"buffer":0,
			"byteLength":960,
			"byteOffset":10176,
			"target":34963
		},
		{
			"buffer":0,
			"byteLength":4824,
			"byteOffset":11136,
			"target":34962
		},
		{
			"buffer":0,
			"byteLength":4824,
			"byteOffset":15960,
			"target":34962
		},
		{
			"buffer":0,
			"byteLength":3216,
			"byteOffset":20784,
			"target":34962
		},
		{
			"buffer":0,
			"byteLength":1248,
			"byteOffset":24000,
			"target":34963
		},
		{
			"buffer":0,
			"byteLength":1824,
			"byteOffset":25248,
			"target":34962
		},
		{
			"buffer":0,
			"byteLength":1824,
			"byteOffset":27072,
			"target":34962
		},
		{
			"buffer":0,
			"byteLength":1216,
			"byteOffset":28896,
			"target":34962
		},
		{
			"buffer":0,
			"byteLength":456,
			"byteOffset":30112,
			"target":34963
		},
		{
			"buffer":0,
			"byteLength":1824,
			"byteOffset":30568,
			"target":34962
		},
		{
			"buffer":0,
			"byteLength":1824,
			"byteOffset":32392,
			"target":34962
		},
		{
			"buffer":0,
			"byteLength":1216,
			"byteOffset":34216,
			"target":34962
		}
	],
	"buffers":[
		{
			"byteLength":35432,
			"uri":"data:application/octet-stream;base64,"
		}
	]
}
