{
	"asset":{
		"generator":"Khronos glTF Blender I/O v3.6.28",
		"version":"2.0"
	},
	"scene":0,
	"scenes":[
		{
			"name":"Scene",
			"nodes":[
				2
			]
		}
	],
	"nodes":[
		{
			"mesh":0,
			"name":"Object_9.001",
			"translation":[
				35.93791198730469,
				-21.56436538696289,
				-0.10139991343021393
			]
		},
		{
			"children":[
				0
			],
			"name":"Subway surfers (3).obj.cleaner.materialmerger.gles"
		},
		{
			"children":[
				1
			],
			"name":"Sketchfab_model",
			"rotation":[
				-0.70710688829422,
				0,
				0,
				0.7071066498756409
			],
			"scale":[
				2.2348825931549072,
				2.2348825931549072,
				2.2348825931549072
			],
			"translation":[
				49.00815200805664,
				0,
				0
			]
		}
	],
	"materials":[
		{
			"doubleSided":true,
			"name":"Material_5.001",
			"pbrMetallicRoughness":{
				"baseColorTexture":{
					"index":0
				},
				"metallicFactor":0,
				"roughnessFactor":0.5
			}
		},
		{
			"doubleSided":true,
			"name":"Material_4.001",
			"pbrMetallicRoughness":{}
		}
	],
	"meshes":[
		{
			"name":"Object_7.002",
			"primitives":[
				{
					"attributes":{
						"POSITION":0,
						"NORMAL":1,
						"TEXCOORD_0":2
					},
					"indices":3,
					"material":0
				},
				{
					"attributes":{
						"POSITION":4,
						"NORMAL":5,
						"TEXCOORD_0":6
					},
					"indices":7,
					"material":1
				}
			]
		}
	],
	"textures":[
		{
			"sampler":0,
			"source":0
		}
	],
	"images":[
		{
			"bufferView":4,
			"mimeType":"image/png",
			"name":"Image_3"
		}
	],
	"accessors":[
		{
			"bufferView":0,
			"componentType":5126,
			"count":242,
			"max":[
				-54.997161865234375,
				22.549280166625977,
				3.112339973449707
			],
			"min":[
				-61.159278869628906,
				20.424779891967773,
				0.004849669989198446
			],
			"type":"VEC3"
		},
		{
			"bufferView":1,
			"componentType":5126,
			"count":242,
			"type":"VEC3"
		},
		{
			"bufferView":2,
			"componentType":5126,
			"count":242,
			"type":"VEC2"
		},
		{
			"bufferView":3,
			"componentType":5123,
			"count":492,
			"type":"SCALAR"
		},
		{
			"bufferView":5,
			"componentType":5126,
			"count":189,
			"max":[
				-59.156280517578125,
				22.13068962097168,
				0.4593411087989807
			],
			"min":[
				-60.554100036621094,
				21.009180068969727,
				-0.0261927992105484
			],
			"type":"VEC3"
		},
		{
			"bufferView":6,
			"componentType":5126,
			"count":189,
			"type":"VEC3"
		},
		{
			"bufferView":7,
			"componentType":5126,
			"count":189,
			"type":"VEC2"
		},
		{
			"bufferView":8,
			"componentType":5123,
			"count":282,
			"type":"SCALAR"
		}
	],
	"bufferViews":[
		{
			"buffer":0,
			"byteLength":2904,
			"byteOffset":0,
			"target":34962
		},
		{
			"buffer":0,
			"byteLength":2904,
			"byteOffset":2904,
			"target":34962
		},
		{
			"buffer":0,
			"byteLength":1936,
			"byteOffset":5808,
			"target":34962
		},
		{
			"buffer":0,
			"byteLength":984,
			"byteOffset":7744,
			"target":34963
		},
		{
			"buffer":0,
			"byteLength":85176,
			"byteOffset":8728
		},
		{
			"buffer":0,
			"byteLength":2268,
			"byteOffset":93904,
			"target":34962
		},
		{
			"buffer":0,
			"byteLength":2268,
			"byteOffset":96172,
			"target":34962
		},
		{
			"buffer":0,
			"byteLength":1512,
			"byteOffset":98440,
			"target":34962
		},
		{
			"buffer":0,
			"byteLength":564,
			"byteOffset":99952,
			"target":34963
		}
	],
	"samplers":[
		{
			"magFilter":9729,
			"minFilter":9987
		}
	],
	"buffers":[
		{
			"byteLength":100516,
			"uri":"data:application/octet-stream;base64,"
		}
	]
}
