{
	"asset":{
		"generator":"Khronos glTF Blender I/O v3.6.28",
		"version":"2.0"
	},
	"scene":0,
	"scenes":[
		{
			"name":"Scene",
			"nodes":[
				0,
				1,
				2,
				3,
				4,
				5,
				6,
				7,
				8,
				9,
				10,
				11,
				12,
				13,
				14,
				15,
				16,
				17
			]
		}
	],
	"nodes":[
		{
			"name":"Taxi",
			"rotation":[
				-0.70710688829422,
				0,
				0,
				0.7071066498756409
			],
			"translation":[
				-0.14691495895385742,
				0.6000001430511475,
				-0.02975386381149292
			]
		},
		{
			"mesh":0,
			"name":"Taxi_body yellow_0",
			"rotation":[
				-0.70710688829422,
				0,
				0,
				0.7071066498756409
			],
			"translation":[
				-0.14691495895385742,
				0.6000001430511475,
				-0.02975386381149292
			]
		},
		{
			"mesh":1,
			"name":"Taxi_body white_0",
			"rotation":[
				-0.70710688829422,
				0,
				0,
				0.7071066498756409
			],
			"translation":[
				-0.14691495895385742,
				0.6000001430511475,
				-0.02975386381149292
			]
		},
		{
			"mesh":2,
			"name":"Taxi_windows_0",
			"rotation":[
				-0.70710688829422,
				0,
				0,
				0.7071066498756409
			],
			"translation":[
				-0.14691495895385742,
				0.6000001430511475,
				-0.02975386381149292
			]
		},
		{
			"mesh":3,
			"name":"Taxi_rear lights_0",
			"rotation":[
				-0.70710688829422,
				0,
				0,
				0.7071066498756409
			],
			"translation":[
				-0.14691495895385742,
				0.6000001430511475,
				-0.02975386381149292
			]
		},
		{
			"mesh":4,
			"name":"Taxi_headlights_0",
			"rotation":[
				-0.70710688829422,
				0,
				0,
				0.7071066498756409
			],
			"translation":[
				-0.14691495895385742,
				0.6000001430511475,
				-0.02975386381149292
			]
		},
		{
			"mesh":5,
			"name":"Taxi_body black_0",
			"rotation":[
				-0.70710688829422,
				0,
				0,
				0.7071066498756409
			],
			"translation":[
				-0.14691495895385742,
				0.6000001430511475,
				-0.02975386381149292
			]
		},
		{
			"mesh":6,
			"name":"Taxi wheel rear right_tires_0",
			"rotation":[
				-0.70710688829422,
				0,
				0,
				0.7071066498756409
			],
			"translation":[
				-1.1734538078308105,
				0.40000009536743164,
				-1.6385798454284668
			]
		},
		{
			"name":"Taxi wheel front left",
			"rotation":[
				-0.70710688829422,
				0,
				0,
				0.7071066498756409
			],
			"translation":[
				0.8796238899230957,
				0.40000009536743164,
				1.5790703296661377
			]
		},
		{
			"mesh":7,
			"name":"Taxi wheel front left_tires_0",
			"rotation":[
				-0.70710688829422,
				0,
				0,
				0.7071066498756409
			],
			"translation":[
				0.8796238899230957,
				0.40000009536743164,
				1.5790703296661377
			]
		},
		{
			"name":"Taxi wheel rear left",
			"rotation":[
				-0.70710688829422,
				0,
				0,
				0.7071066498756409
			],
			"translation":[
				0.8796238899230957,
				0.40000009536743164,
				-1.6385798454284668
			]
		},
		{
			"mesh":8,
			"name":"Taxi wheel rear left_tires_0",
			"rotation":[
				-0.70710688829422,
				0,
				0,
				0.7071066498756409
			],
			"translation":[
				0.8796238899230957,
				0.40000009536743164,
				-1.6385798454284668
			]
		},
		{
			"name":"Taxi wheel front right",
			"rotation":[
				-0.70710688829422,
				0,
				0,
				0.7071066498756409
			],
			"translation":[
				-1.1734538078308105,
				0.40000009536743164,
				1.5790703296661377
			]
		},
		{
			"mesh":9,
			"name":"Taxi wheel front right_tires_0",
			"rotation":[
				-0.70710688829422,
				0,
				0,
				0.7071066498756409
			],
			"translation":[
				-1.1734538078308105,
				0.40000009536743164,
				1.5790703296661377
			]
		},
		{
			"mesh":10,
			"name":"Cilindro",
			"rotation":[
				0.12981532514095306,
				0.12981532514095306,
				-0.6950884461402893,
				0.6950885057449341
			],
			"scale":[
				0.32862213253974915,
				0.08077973872423172,
				0.32862213253974915
			],
			"translation":[
				0.8129265904426575,
				0.3953179121017456,
				1.5863215923309326
			]
		},
		{
			"mesh":11,
			"name":"Cilindro.001",
			"rotation":[
				0.12981532514095306,
				0.12981532514095306,
				-0.6950884461402893,
				0.6950885057449341
			],
			"scale":[
				0.32862213253974915,
				0.08077973872423172,
				0.32862213253974915
			],
			"translation":[
				0.8129265904426575,
				0.3953179121017456,
				-1.6920654773712158
			]
		},
		{
			"mesh":12,
			"name":"Cilindro.002",
			"rotation":[
				0.12981532514095306,
				0.12981532514095306,
				-0.6950884461402893,
				0.6950885057449341
			],
			"scale":[
				0.32862213253974915,
				0.08077973872423172,
				0.32862213253974915
			],
			"translation":[
				-1.1607474088668823,
				0.3953179121017456,
				1.5863215923309326
			]
		},
		{
			"mesh":13,
			"name":"Cilindro.003",
			"rotation":[
				0.12981532514095306,
				0.12981532514095306,
				-0.6950884461402893,
				0.6950885057449341
			],
			"scale":[
				0.32862213253974915,
				0.08077973872423172,
				0.32862213253974915
			],
			"translation":[
				-1.1607474088668823,
				0.3953179121017456,
				-1.6920654773712158
			]
		}
	],
	"materials":[
		{
			"doubleSided":true,
			"name":"body_yellow.001",
			"pbrMetallicRoughness":{
				"baseColorFactor":[
					1,
					0.6172069907188416,
					0.04666509851813316,
					1
				],
				"metallicFactor":0
			}
		},
		{
			"doubleSided":true,
			"name":"body_white.001",
			"pbrMetallicRoughness":{
				"baseColorFactor":[
					1,
					0.9473069906234741,
					1,
					1
				],
				"metallicFactor":0
			}
		},
		{
			"doubleSided":true,
			"name":"windows.001",
			"pbrMetallicRoughness":{
				"baseColorFactor":[
					0.09530749917030334,
					0.11697100102901459,
					0.18782100081443787,
					1
				],
				"metallicFactor":0
			}
		},
		{
			"doubleSided":true,
			"name":"rear_lights.001",
			"pbrMetallicRoughness":{
				"baseColorFactor":[
					0.32314300537109375,
					0.0018211599672213197,
					0.01444379985332489,
					1
				],
				"metallicFactor":0
			}
		},
		{
			"doubleSided":true,
			"name":"headlights.001",
			"pbrMetallicRoughness":{
				"baseColorFactor":[
					0.6583750247955322,
					0.6239609718322754,
					0.791297972202301,
					1
				],
				"metallicFactor":0
			}
		},
		{
			"doubleSided":true,
			"name":"body_black.001",
			"pbrMetallicRoughness":{
				"baseColorFactor":[
					0.0009105809731408954,
					0,
					0,
					1
				],
				"metallicFactor":0
			}
		},
		{
			"doubleSided":true,
			"name":"tires.001",
			"pbrMetallicRoughness":{
				"baseColorFactor":[
					0.0009105809731408954,
					0,
					0,
					1
				],
				"metallicFactor":0
			}
		}
	],
	"meshes":[
		{
			"name":"Taxi_body yellow_0.001",
			"primitives":[
				{
					"attributes":{
						"POSITION":0,
						"NORMAL":1,
						"TEXCOORD_0":2
					},
					"indices":3,
					"material":0
				}
			]
		},
		{
			"name":"Taxi_body white_0.001",
			"primitives":[
				{
					"attributes":{
						"POSITION":4,
						"NORMAL":5,
						"TEXCOORD_0":6
					},
					"indices":7,
					"material":1
				}
			]
		},
		{
			"name":"Taxi_windows_0.001",
			"primitives":[
				{
					"attributes":{
						"POSITION":8,
						"NORMAL":9,
						"TEXCOORD_0":10
					},
					"indices":11,
					"material":2
				}
			]
		},
		{
			"name":"Taxi_rear lights_0.001",
			"primitives":[
				{
					"attributes":{
						"POSITION":12,
						"NORMAL":13,
						"TEXCOORD_0":14
					},
					"indices":15,
					"material":3
				}
			]
		},
		{
			"name":"Taxi_headlights_0.001",
			"primitives":[
				{
					"attributes":{
						"POSITION":16,
						"NORMAL":17,
						"TEXCOORD_0":18
					},
					"indices":19,
					"material":4
				}
			]
		},
		{
			"name":"Taxi_body black_0.001",
			"primitives":[
				{
					"attributes":{
						"POSITION":20,
						"NORMAL":21,
						"TEXCOORD_0":22
					},
					"indices":23,
					"material":5
				}
			]
		},
		{
			"name":"Taxi wheel rear right_tires_0.001",
			"primitives":[
				{
					"attributes":{
						"POSITION":24,
						"NORMAL":25,
						"TEXCOORD_0":26
					},
					"indices":27,
					"material":6
				}
			]
		},
		{
			"name":"Taxi wheel front left_tires_0.001",
			"primitives":[
				{
					"attributes":{
						"POSITION":28,
						"NORMAL":29,
						"TEXCOORD_0":30
					},
					"indices":27,
					"material":6
				}
			]
		},
		{
			"name":"Taxi wheel rear left_tires_0.001",
			"primitives":[
				{
					"attributes":{
						"POSITION":31,
						"NORMAL":32,
						"TEXCOORD_0":33
					},
					"indices":34,
					"material":6
				}
			]
		},
		{
			"name":"Taxi wheel front right_tires_0.001",
			"primitives":[
				{
					"attributes":{
						"POSITION":35,
						"NORMAL":36,
						"TEXCOORD_0":37
					},
					"indices":34,
					"material":6
				}
			]
		},
		{
			"name":"Cilindro",
			"primitives":[
				{
					"attributes":{
						"POSITION":38,
						"NORMAL":39,
						"TEXCOORD_0":40
					},
					"indices":41
				}
			]
		},
		{
			"name":"Cilindro.001",
			"primitives":[
				{
					"attributes":{
						"POSITION":42,
						"NORMAL":43,
						"TEXCOORD_0":44
					},
					"indices":41
				}
			]
		},
		{
			"name":"Cilindro.002",
			"primitives":[
				{
					"attributes":{
						"POSITION":45,
						"NORMAL":46,
						"TEXCOORD_0":47
					},
					"indices":41
				}
			]
		},
		{
			"name":"Cilindro.003",
			"primitives":[
				{
					"attributes":{
						"POSITION":48,
						"NORMAL":49,
						"TEXCOORD_0":50
					},
					"indices":41
				}
			]
		}
	],
	"accessors":[
		{
			"bufferView":0,
			"componentType":5126,
			"count":1117,
			"max":[
				1.4069180488586426,
				2.5483951568603516,
				1.3999998569488525
			],
			"min":[
				-1.4069180488586426,
				-2.646658420562744,
				-0.29999998211860657
			],
			"type":"VEC3"
		},
		{
			"bufferView":1,
			"componentType":5126,
			"count":1117,
			"type":"VEC3"
		},
		{
			"bufferView":2,
			"componentType":5126,
			"count":1117,
			"type":"VEC2"
		},
		{
			"bufferView":3,
			"componentType":5123,
			"count":1890,
			"type":"SCALAR"
		},
		{
			"bufferView":4,
			"componentType":5126,
			"count":56,
			"max":[
				0.30986887216567993,
				2.5483951568603516,
				1.7087699174880981
			],
			"min":[
				-0.30986887216567993,
				-2.646658420562744,
				-0.22465823590755463
			],
			"type":"VEC3"
		},
		{
			"bufferView":5,
			"componentType":5126,
			"count":56,
			"type":"VEC3"
		},
		{
			"bufferView":6,
			"componentType":5126,
			"count":56,
			"type":"VEC2"
		},
		{
			"bufferView":7,
			"componentType":5123,
			"count":96,
			"type":"SCALAR"
		},
		{
			"bufferView":8,
			"componentType":5126,
			"count":60,
			"max":[
				1.3783191442489624,
				1.471184253692627,
				1.3403397798538208
			],
			"min":[
				-1.3783191442489624,
				-1.1257504224777222,
				0.6147453784942627
			],
			"type":"VEC3"
		},
		{
			"bufferView":9,
			"componentType":5126,
			"count":60,
			"type":"VEC3"
		},
		{
			"bufferView":10,
			"componentType":5126,
			"count":60,
			"type":"VEC2"
		},
		{
			"bufferView":11,
			"componentType":5123,
			"count":96,
			"type":"SCALAR"
		},
		{
			"bufferView":12,
			"componentType":5126,
			"count":106,
			"max":[
				1.090419888496399,
				2.5415327548980713,
				0.5577906370162964
			],
			"min":[
				-1.090419888496399,
				2.233292818069458,
				0.39220932126045227
			],
			"type":"VEC3"
		},
		{
			"bufferView":13,
			"componentType":5126,
			"count":106,
			"type":"VEC3"
		},
		{
			"bufferView":14,
			"componentType":5126,
			"count":106,
			"type":"VEC2"
		},
		{
			"bufferView":15,
			"componentType":5123,
			"count":168,
			"type":"SCALAR"
		},
		{
			"bufferView":16,
			"componentType":5126,
			"count":8,
			"max":[
				1.0258934497833252,
				-2.2650809288024902,
				0.5535783767700195
			],
			"min":[
				-1.0258934497833252,
				-2.539088726043701,
				0.39642155170440674
			],
			"type":"VEC3"
		},
		{
			"bufferView":17,
			"componentType":5126,
			"count":8,
			"type":"VEC3"
		},
		{
			"bufferView":18,
			"componentType":5126,
			"count":8,
			"type":"VEC2"
		},
		{
			"bufferView":19,
			"componentType":5123,
			"count":12,
			"type":"SCALAR"
		},
		{
			"bufferView":20,
			"componentType":5126,
			"count":277,
			"max":[
				1.100000023841858,
				2.5866479873657227,
				0.5226773619651794
			],
			"min":[
				-1.100000023841858,
				-2.5207831859588623,
				-0.2175287902355194
			],
			"type":"VEC3"
		},
		{
			"bufferView":21,
			"componentType":5126,
			"count":277,
			"type":"VEC3"
		},
		{
			"bufferView":22,
			"componentType":5126,
			"count":277,
			"type":"VEC2"
		},
		{
			"bufferView":23,
			"componentType":5123,
			"count":456,
			"type":"SCALAR"
		},
		{
			"bufferView":24,
			"componentType":5126,
			"count":114,
			"max":[
				0.21237581968307495,
				0.3904900550842285,
				0.41058605909347534
			],
			"min":[
				-0.10630273818969727,
				-0.3904910087585449,
				-0.41058605909347534
			],
			"type":"VEC3"
		},
		{
			"bufferView":25,
			"componentType":5126,
			"count":114,
			"type":"VEC3"
		},
		{
			"bufferView":26,
			"componentType":5126,
			"count":114,
			"type":"VEC2"
		},
		{
			"bufferView":27,
			"componentType":5123,
			"count":180,
			"type":"SCALAR"
		},
		{
			"bufferView":28,
			"componentType":5126,
			"count":114,
			"max":[
				0.10630273818969727,
				0.39049088954925537,
				0.41058605909347534
			],
			"min":[
				-0.21237581968307495,
				-0.39048993587493896,
				-0.41058605909347534
			],
			"type":"VEC3"
		},
		{
			"bufferView":29,
			"componentType":5126,
			"count":114,
			"type":"VEC3"
		},
		{
			"bufferView":30,
			"componentType":5126,
			"count":114,
			"type":"VEC2"
		},
		{
			"bufferView":31,
			"componentType":5126,
			"count":120,
			"max":[
				0.10630273818969727,
				0.3904900550842285,
				0.41058605909347534
			],
			"min":[
				-0.21237581968307495,
				-0.3904910087585449,
				-0.41058605909347534
			],
			"type":"VEC3"
		},
		{
			"bufferView":32,
			"componentType":5126,
			"count":120,
			"type":"VEC3"
		},
		{
			"bufferView":33,
			"componentType":5126,
			"count":120,
			"type":"VEC2"
		},
		{
			"bufferView":34,
			"componentType":5123,
			"count":180,
			"type":"SCALAR"
		},
		{
			"bufferView":35,
			"componentType":5126,
			"count":120,
			"max":[
				0.21237581968307495,
				0.39049088954925537,
				0.41058605909347534
			],
			"min":[
				-0.10630273818969727,
				-0.39048993587493896,
				-0.41058605909347534
			],
			"type":"VEC3"
		},
		{
			"bufferView":36,
			"componentType":5126,
			"count":120,
			"type":"VEC3"
		},
		{
			"bufferView":37,
			"componentType":5126,
			"count":120,
			"type":"VEC2"
		},
		{
			"bufferView":38,
			"componentType":5126,
			"count":60,
			"max":[
				0.9510565400123596,
				1,
				1
			],
			"min":[
				-0.9510565400123596,
				-1,
				-1
			],
			"type":"VEC3"
		},
		{
			"bufferView":39,
			"componentType":5126,
			"count":60,
			"type":"VEC3"
		},
		{
			"bufferView":40,
			"componentType":5126,
			"count":60,
			"type":"VEC2"
		},
		{
			"bufferView":41,
			"componentType":5123,
			"count":108,
			"type":"SCALAR"
		},
		{
			"bufferView":42,
			"componentType":5126,
			"count":60,
			"max":[
				0.9510565400123596,
				1,
				1
			],
			"min":[
				-0.9510565400123596,
				-1,
				-1
			],
			"type":"VEC3"
		},
		{
			"bufferView":43,
			"componentType":5126,
			"count":60,
			"type":"VEC3"
		},
		{
			"bufferView":44,
			"componentType":5126,
			"count":60,
			"type":"VEC2"
		},
		{
			"bufferView":45,
			"componentType":5126,
			"count":60,
			"max":[
				0.9510565400123596,
				1,
				1
			],
			"min":[
				-0.9510565400123596,
				-1,
				-1
			],
			"type":"VEC3"
		},
		{
			"bufferView":46,
			"componentType":5126,
			"count":60,
			"type":"VEC3"
		},
		{
			"bufferView":47,
			"componentType":5126,
			"count":60,
			"type":"VEC2"
		},
		{
			"bufferView":48,
			"componentType":5126,
			"count":60,
			"max":[
				0.9510565400123596,
				1,
				1
			],
			"min":[
				-0.9510565400123596,
				-1,
				-1
			],
			"type":"VEC3"
		},
		{
			"bufferView":49,
			"componentType":5126,
			"count":60,
			"type":"VEC3"
		},
		{
			"bufferView":50,
			"componentType":5126,
			"count":60,
			"type":"VEC2"
		}
	],
	"bufferViews":[
		{
			"buffer":0,
			"byteLength":13404,
			"byteOffset":0,
			"target":34962
		},
		{
			"buffer":0,
			"byteLength":13404,
			"byteOffset":13404,
			"target":34962
		},
		{
			"buffer":0,
			"byteLength":8936,
			"byteOffset":26808,
			"target":34962
		},
		{
			"buffer":0,
			"byteLength":3780,
			"byteOffset":35744,
			"target":34963
		},
		{
			"buffer":0,
			"byteLength":672,
			"byteOffset":39524,
			"target":34962
		},
		{
			"buffer":0,
			"byteLength":672,
			"byteOffset":40196,
			"target":34962
		},
		{
			"buffer":0,
			"byteLength":448,
			"byteOffset":40868,
			"target":34962
		},
		{
			"buffer":0,
			"byteLength":192,
			"byteOffset":41316,
			"target":34963
		},
		{
			"buffer":0,
			"byteLength":720,
			"byteOffset":41508,
			"target":34962
		},
		{
			"buffer":0,
			"byteLength":720,
			"byteOffset":42228,
			"target":34962
		},
		{
			"buffer":0,
			"byteLength":480,
			"byteOffset":42948,
			"target":34962
		},
		{
			"buffer":0,
			"byteLength":192,
			"byteOffset":43428,
			"target":34963
		},
		{
			"buffer":0,
			"byteLength":1272,
			"byteOffset":43620,
			"target":34962
		},
		{
			"buffer":0,
			"byteLength":1272,
			"byteOffset":44892,
			"target":34962
		},
		{
			"buffer":0,
			"byteLength":848,
			"byteOffset":46164,
			"target":34962
		},
		{
			"buffer":0,
			"byteLength":336,
			"byteOffset":47012,
			"target":34963
		},
		{
			"buffer":0,
			"byteLength":96,
			"byteOffset":47348,
			"target":34962
		},
		{
			"buffer":0,
			"byteLength":96,
			"byteOffset":47444,
			"target":34962
		},
		{
			"buffer":0,
			"byteLength":64,
			"byteOffset":47540,
			"target":34962
		},
		{
			"buffer":0,
			"byteLength":24,
			"byteOffset":47604,
			"target":34963
		},
		{
			"buffer":0,
			"byteLength":3324,
			"byteOffset":47628,
			"target":34962
		},
		{
			"buffer":0,
			"byteLength":3324,
			"byteOffset":50952,
			"target":34962
		},
		{
			"buffer":0,
			"byteLength":2216,
			"byteOffset":54276,
			"target":34962
		},
		{
			"buffer":0,
			"byteLength":912,
			"byteOffset":56492,
			"target":34963
		},
		{
			"buffer":0,
			"byteLength":1368,
			"byteOffset":57404,
			"target":34962
		},
		{
			"buffer":0,
			"byteLength":1368,
			"byteOffset":58772,
			"target":34962
		},
		{
			"buffer":0,
			"byteLength":912,
			"byteOffset":60140,
			"target":34962
		},
		{
			"buffer":0,
			"byteLength":360,
			"byteOffset":61052,
			"target":34963
		},
		{
			"buffer":0,
			"byteLength":1368,
			"byteOffset":61412,
			"target":34962
		},
		{
			"buffer":0,
			"byteLength":1368,
			"byteOffset":62780,
			"target":34962
		},
		{
			"buffer":0,
			"byteLength":912,
			"byteOffset":64148,
			"target":34962
		},
		{
			"buffer":0,
			"byteLength":1440,
			"byteOffset":65060,
			"target":34962
		},
		{
			"buffer":0,
			"byteLength":1440,
			"byteOffset":66500,
			"target":34962
		},
		{
			"buffer":0,
			"byteLength":960,
			"byteOffset":67940,
			"target":34962
		},
		{
			"buffer":0,
			"byteLength":360,
			"byteOffset":68900,
			"target":34963
		},
		{
			"buffer":0,
			"byteLength":1440,
			"byteOffset":69260,
			"target":34962
		},
		{
			"buffer":0,
			"byteLength":1440,
			"byteOffset":70700,
			"target":34962
		},
		{
			"buffer":0,
			"byteLength":960,
			"byteOffset":72140,
			"target":34962
		},
		{
			"buffer":0,
			"byteLength":720,
			"byteOffset":73100,
			"target":34962
		},
		{
			"buffer":0,
			"byteLength":720,
			"byteOffset":73820,
			"target":34962
		},
		{
			"buffer":0,
			"byteLength":480,
			"byteOffset":74540,
			"target":34962
		},
		{
			"buffer":0,
			"byteLength":216,
			"byteOffset":75020,
			"target":34963
		},
		{
			"buffer":0,
			"byteLength":720,
			"byteOffset":75236,
			"target":34962
		},
		{
			"buffer":0,
			"byteLength":720,
			"byteOffset":75956,
			"target":34962
		},
		{
			"buffer":0,
			"byteLength":480,
			"byteOffset":76676,
			"target":34962
		},
		{
			"buffer":0,
			"byteLength":720,
			"byteOffset":77156,
			"target":34962
		},
		{
			"buffer":0,
			"byteLength":720,
			"byteOffset":77876,
			"target":34962
		},
		{
			"buffer":0,
			"byteLength":480,
			"byteOffset":78596,
			"target":34962
		},
		{
			"buffer":0,
			"byteLength":720,
			"byteOffset":79076,
			"target":34962
		},
		{
			"buffer":0,
			"byteLength":720,
			"byteOffset":79796,
			"target":34962
		},
		{
			"buffer":0,
			"byteLength":480,
			"byteOffset":80516,
			"target":34962
		}
	],
	"buffers":[
		{
			"byteLength":80996,
			"uri":"data:application/octet-stream;base64,"
		}
	]
}
