{
	"asset":{
		"generator":"Khronos glTF Blender I/O v3.6.28",
		"version":"2.0"
	},
	"extensionsUsed":[
		"KHR_materials_specular"
	],
	"scene":0,
	"scenes":[
		{
			"name":"Scene",
			"nodes":[
				31
			]
		}
	],
	"nodes":[
		{
			"mesh":0,
			"name":"body_0"
		},
		{
			"mesh":1,
			"name":"exhausts_0"
		},
		{
			"mesh":2,
			"name":"exhausts_1"
		},
		{
			"children":[
				1,
				2
			],
			"name":"exhausts",
			"translation":[
				0,
				1.1792399883270264,
				0.28106996417045593
			]
		},
		{
			"mesh":3,
			"name":"cannon_0"
		},
		{
			"children":[
				4
			],
			"name":"cannon",
			"translation":[
				0,
				-1.7769802808761597,
				0.3883499503135681
			]
		},
		{
			"mesh":4,
			"name":"head_0"
		},
		{
			"children":[
				5,
				6
			],
			"name":"head",
			"translation":[
				0,
				-0.39048999547958374,
				0.7141399383544922
			]
		},
		{
			"mesh":5,
			"name":"headlights_0"
		},
		{
			"mesh":6,
			"name":"headlights_1"
		},
		{
			"children":[
				8,
				9
			],
			"name":"headlights",
			"translation":[
				0,
				-2.712399959564209,
				0.2253400683403015
			]
		},
		{
			"mesh":7,
			"name":"front wheel_0",
			"translation":[
				1.348668098449707,
				0.19900566339492798,
				-0.5623656511306763
			]
		},
		{
			"mesh":8,
			"name":"front wheel_0.001",
			"translation":[
				1.348668098449707,
				1.8024390935897827,
				-0.5623654127120972
			]
		},
		{
			"mesh":9,
			"name":"front wheel_1"
		},
		{
			"children":[
				11,
				12,
				13
			],
			"name":"front wheel",
			"translation":[
				0,
				-0.9762898683547974,
				-0.11769995093345642
			]
		},
		{
			"mesh":10,
			"name":"mid front wheel_0"
		},
		{
			"mesh":11,
			"name":"mid front wheel_1"
		},
		{
			"children":[
				15,
				16
			],
			"name":"mid front wheel",
			"translation":[
				0,
				-0.36570996046066284,
				-0.7738900780677795
			]
		},
		{
			"mesh":12,
			"name":"mid rear wheel_0"
		},
		{
			"mesh":13,
			"name":"mid rear wheel_1"
		},
		{
			"children":[
				18,
				19
			],
			"name":"mid rear wheel",
			"translation":[
				0,
				0.08901002258062363,
				-0.640269935131073
			]
		},
		{
			"mesh":14,
			"name":"mid top wheel_0"
		},
		{
			"mesh":15,
			"name":"mid top wheel_1"
		},
		{
			"children":[
				21,
				22
			],
			"name":"mid top wheel",
			"translation":[
				0,
				-0.1515899896621704,
				-0.28397998213768005
			]
		},
		{
			"mesh":16,
			"name":"mudflaps_0"
		},
		{
			"mesh":17,
			"name":"rear wheel_1"
		},
		{
			"children":[
				25
			],
			"name":"rear wheel",
			"translation":[
				0,
				0.5987799763679504,
				-0.049990054219961166
			]
		},
		{
			"name":"thread",
			"translation":[
				0,
				0.5603200197219849,
				0
			]
		},
		{
			"children":[
				14,
				17,
				20,
				23,
				24,
				26,
				27
			],
			"name":"mudflaps",
			"translation":[
				0,
				-0.5603200197219849,
				0.22533999383449554
			]
		},
		{
			"children":[
				0,
				3,
				7,
				10,
				28
			],
			"name":"body",
			"translation":[
				0,
				0,
				0.9132400155067444
			]
		},
		{
			"children":[
				29
			],
			"name":"Root"
		},
		{
			"children":[
				30
			],
			"name":"Sketchfab_model",
			"rotation":[
				-0.70710688829422,
				0,
				0,
				0.7071066498756409
			]
		}
	],
	"animations":[
		{
			"channels":[
				{
					"sampler":0,
					"target":{
						"node":11,
						"path":"rotation"
					}
				}
			],
			"name":"front wheel_0Action",
			"samplers":[
				{
					"input":48,
					"interpolation":"LINEAR",
					"output":49
				}
			]
		},
		{
			"channels":[
				{
					"sampler":0,
					"target":{
						"node":12,
						"path":"rotation"
					}
				}
			],
			"name":"front wheel_0Action.001",
			"samplers":[
				{
					"input":48,
					"interpolation":"LINEAR",
					"output":50
				}
			]
		}
	],
	"materials":[
		{
			"doubleSided":true,
			"extensions":{
				"KHR_materials_specular":{
					"specularColorFactor":[
						0.04794520139694213,
						0.04794520139694213,
						0.04794520139694213
					]
				}
			},
			"name":"base",
			"pbrMetallicRoughness":{
				"baseColorFactor":[
					0.02061127871274948,
					0.07149847596883774,
					0.00899037066847086,
					1
				],
				"metallicFactor":0,
				"roughnessFactor":0.06164383515715599
			}
		},
		{
			"doubleSided":true,
			"extensions":{
				"KHR_materials_specular":{
					"specularColorFactor":[
						0.35616439580917353,
						0.35616439580917353,
						0.35616439580917353
					]
				}
			},
			"name":"metal",
			"pbrMetallicRoughness":{
				"baseColorFactor":[
					0.03791062533855438,
					0.04311833530664444,
					0.04326586052775383,
					1
				],
				"metallicFactor":0.05000000074505806,
				"roughnessFactor":0
			}
		},
		{
			"doubleSided":true,
			"emissiveFactor":[
				1,
				1,
				0.1688375473022461
			],
			"name":"lights",
			"pbrMetallicRoughness":{
				"baseColorFactor":[
					1,
					0.954303503036499,
					0.2527695298194885,
					1
				],
				"metallicFactor":0,
				"roughnessFactor":0.6000000238418579
			}
		},
		{
			"doubleSided":true,
			"name":"wheel",
			"pbrMetallicRoughness":{
				"baseColorFactor":[
					0.02638307958841324,
					0.026169834658503532,
					0.026169834658503532,
					1
				],
				"metallicFactor":0.05000000074505806,
				"roughnessFactor":0
			}
		},
		{
			"doubleSided":true,
			"name":"wheel_inside",
			"pbrMetallicRoughness":{
				"baseColorFactor":[
					0.0874033272266388,
					0.09503719210624695,
					0.09420879185199738,
					1
				],
				"metallicFactor":0.10000000149011612,
				"roughnessFactor":0
			}
		}
	],
	"meshes":[
		{
			"name":"body_0",
			"primitives":[
				{
					"attributes":{
						"POSITION":0,
						"NORMAL":1
					},
					"indices":2,
					"material":0
				}
			]
		},
		{
			"name":"exhausts_0",
			"primitives":[
				{
					"attributes":{
						"POSITION":3,
						"NORMAL":4
					},
					"indices":5,
					"material":0
				}
			]
		},
		{
			"name":"exhausts_1",
			"primitives":[
				{
					"attributes":{
						"POSITION":6,
						"NORMAL":7
					},
					"indices":8,
					"material":1
				}
			]
		},
		{
			"name":"cannon_0",
			"primitives":[
				{
					"attributes":{
						"POSITION":9,
						"NORMAL":10
					},
					"indices":11,
					"material":1
				}
			]
		},
		{
			"name":"head_0",
			"primitives":[
				{
					"attributes":{
						"POSITION":12,
						"NORMAL":13
					},
					"indices":14,
					"material":0
				}
			]
		},
		{
			"name":"headlights_0",
			"primitives":[
				{
					"attributes":{
						"POSITION":15,
						"NORMAL":16
					},
					"indices":17,
					"material":0
				}
			]
		},
		{
			"name":"headlights_1",
			"primitives":[
				{
					"attributes":{
						"POSITION":18,
						"NORMAL":19
					},
					"indices":20,
					"material":2
				}
			]
		},
		{
			"name":"front wheel_0",
			"primitives":[
				{
					"attributes":{
						"POSITION":21,
						"NORMAL":22
					},
					"indices":23,
					"material":3
				}
			]
		},
		{
			"name":"front wheel_0.001",
			"primitives":[
				{
					"attributes":{
						"POSITION":24,
						"NORMAL":25
					},
					"indices":23,
					"material":3
				}
			]
		},
		{
			"name":"front wheel_1",
			"primitives":[
				{
					"attributes":{
						"POSITION":26,
						"NORMAL":27
					},
					"indices":28,
					"material":4
				}
			]
		},
		{
			"name":"mid front wheel_0",
			"primitives":[
				{
					"attributes":{
						"POSITION":29,
						"NORMAL":30
					},
					"indices":31,
					"material":3
				}
			]
		},
		{
			"name":"mid front wheel_1",
			"primitives":[
				{
					"attributes":{
						"POSITION":32,
						"NORMAL":33
					},
					"indices":34,
					"material":4
				}
			]
		},
		{
			"name":"mid rear wheel_0",
			"primitives":[
				{
					"attributes":{
						"POSITION":35,
						"NORMAL":36
					},
					"indices":31,
					"material":3
				}
			]
		},
		{
			"name":"mid rear wheel_1",
			"primitives":[
				{
					"attributes":{
						"POSITION":37,
						"NORMAL":38
					},
					"indices":34,
					"material":4
				}
			]
		},
		{
			"name":"mid top wheel_0",
			"primitives":[
				{
					"attributes":{
						"POSITION":39,
						"NORMAL":40
					},
					"indices":31,
					"material":3
				}
			]
		},
		{
			"name":"mid top wheel_1",
			"primitives":[
				{
					"attributes":{
						"POSITION":41,
						"NORMAL":42
					},
					"indices":34,
					"material":4
				}
			]
		},
		{
			"name":"mudflaps_0",
			"primitives":[
				{
					"attributes":{
						"POSITION":43,
						"NORMAL":44
					},
					"indices":45,
					"material":0
				}
			]
		},
		{
			"name":"rear wheel_1",
			"primitives":[
				{
					"attributes":{
						"POSITION":46,
						"NORMAL":47
					},
					"indices":28,
					"material":4
				}
			]
		}
	],
	"accessors":[
		{
			"bufferView":0,
			"componentType":5126,
			"count":170,
			"max":[
				1,
				1,
				0.6626799702644348
			],
			"min":[
				-1,
				-2.169219970703125,
				-0.7806599736213684
			],
			"type":"VEC3"
		},
		{
			"bufferView":1,
			"componentType":5126,
			"count":170,
			"type":"VEC3"
		},
		{
			"bufferView":2,
			"componentType":5123,
			"count":276,
			"type":"SCALAR"
		},
		{
			"bufferView":3,
			"componentType":5126,
			"count":72,
			"max":[
				0.7630500197410583,
				0.17883999645709991,
				-0.0776199996471405
			],
			"min":[
				-0.7630500197410583,
				-0.18685999512672424,
				-0.694570004940033
			],
			"type":"VEC3"
		},
		{
			"bufferView":4,
			"componentType":5126,
			"count":72,
			"type":"VEC3"
		},
		{
			"bufferView":5,
			"componentType":5123,
			"count":108,
			"type":"SCALAR"
		},
		{
			"bufferView":6,
			"componentType":5126,
			"count":656,
			"max":[
				0.8384699821472168,
				0.5001599788665771,
				1.1030199527740479
			],
			"min":[
				-0.8384699821472168,
				-0.11823999881744385,
				-0.12730999290943146
			],
			"type":"VEC3"
		},
		{
			"bufferView":7,
			"componentType":5126,
			"count":656,
			"type":"VEC3"
		},
		{
			"bufferView":8,
			"componentType":5123,
			"count":864,
			"type":"SCALAR"
		},
		{
			"bufferView":9,
			"componentType":5126,
			"count":264,
			"max":[
				0.23436999320983887,
				1.0050699710845947,
				0.23436999320983887
			],
			"min":[
				-0.23436999320983887,
				-1.0050699710845947,
				-0.23436999320983887
			],
			"type":"VEC3"
		},
		{
			"bufferView":10,
			"componentType":5126,
			"count":264,
			"type":"VEC3"
		},
		{
			"bufferView":11,
			"componentType":5123,
			"count":402,
			"type":"SCALAR"
		},
		{
			"bufferView":12,
			"componentType":5126,
			"count":148,
			"max":[
				0.8895099759101868,
				1.0326299667358398,
				0.7328500151634216
			],
			"min":[
				-0.8895099759101868,
				-1.0326299667358398,
				0
			],
			"type":"VEC3"
		},
		{
			"bufferView":13,
			"componentType":5126,
			"count":148,
			"type":"VEC3"
		},
		{
			"bufferView":14,
			"componentType":5123,
			"count":228,
			"type":"SCALAR"
		},
		{
			"bufferView":15,
			"componentType":5126,
			"count":224,
			"max":[
				0.7636399865150452,
				0.6567599773406982,
				-0.05297999829053879
			],
			"min":[
				-0.7636399865150452,
				0.4605500102043152,
				-0.4749000072479248
			],
			"type":"VEC3"
		},
		{
			"bufferView":16,
			"componentType":5126,
			"count":224,
			"type":"VEC3"
		},
		{
			"bufferView":17,
			"componentType":5123,
			"count":384,
			"type":"SCALAR"
		},
		{
			"bufferView":18,
			"componentType":5126,
			"count":96,
			"max":[
				0.6895300149917603,
				0.504859983921051,
				-0.12709000706672668
			],
			"min":[
				-0.6895300149917603,
				0.4778900146484375,
				-0.4007900059223175
			],
			"type":"VEC3"
		},
		{
			"bufferView":19,
			"componentType":5126,
			"count":96,
			"type":"VEC3"
		},
		{
			"bufferView":20,
			"componentType":5123,
			"count":132,
			"type":"SCALAR"
		},
		{
			"bufferView":21,
			"componentType":5126,
			"count":176,
			"max":[
				0.165571928024292,
				0.4267042875289917,
				0.43092572689056396
			],
			"min":[
				-2.862908124923706,
				-0.4246257245540619,
				-0.420404314994812
			],
			"type":"VEC3"
		},
		{
			"bufferView":22,
			"componentType":5126,
			"count":176,
			"type":"VEC3"
		},
		{
			"bufferView":23,
			"componentType":5123,
			"count":324,
			"type":"SCALAR"
		},
		{
			"bufferView":24,
			"componentType":5126,
			"count":176,
			"max":[
				0.165571928024292,
				0.4267042875289917,
				0.43092572689056396
			],
			"min":[
				-2.862908124923706,
				-0.4246257245540619,
				-0.420404314994812
			],
			"type":"VEC3"
		},
		{
			"bufferView":25,
			"componentType":5126,
			"count":176,
			"type":"VEC3"
		},
		{
			"bufferView":26,
			"componentType":5126,
			"count":16,
			"max":[
				1.3486700057983398,
				0.4579800069332123,
				-0.2991800010204315
			],
			"min":[
				-1.3486700057983398,
				-0.05787999927997589,
				-0.8150399923324585
			],
			"type":"VEC3"
		},
		{
			"bufferView":27,
			"componentType":5126,
			"count":16,
			"type":"VEC3"
		},
		{
			"bufferView":28,
			"componentType":5123,
			"count":36,
			"type":"SCALAR"
		},
		{
			"bufferView":29,
			"componentType":5126,
			"count":116,
			"max":[
				1.4519100189208984,
				0.2033900022506714,
				-0.04416999965906143
			],
			"min":[
				-1.4519100189208984,
				-0.0697299987077713,
				-0.3172999918460846
			],
			"type":"VEC3"
		},
		{
			"bufferView":30,
			"componentType":5126,
			"count":116,
			"type":"VEC3"
		},
		{
			"bufferView":31,
			"componentType":5123,
			"count":228,
			"type":"SCALAR"
		},
		{
			"bufferView":32,
			"componentType":5126,
			"count":80,
			"max":[
				1.5806599855422974,
				0.1495800018310547,
				-0.0979899987578392
			],
			"min":[
				-1.5806599855422974,
				-0.01592000015079975,
				-0.2634899914264679
			],
			"type":"VEC3"
		},
		{
			"bufferView":33,
			"componentType":5126,
			"count":80,
			"type":"VEC3"
		},
		{
			"bufferView":34,
			"componentType":5123,
			"count":132,
			"type":"SCALAR"
		},
		{
			"bufferView":35,
			"componentType":5126,
			"count":116,
			"max":[
				1.4519100189208984,
				0.28659000992774963,
				-0.06224000081419945
			],
			"min":[
				-1.4519100189208984,
				-0.09826000034809113,
				-0.4470899999141693
			],
			"type":"VEC3"
		},
		{
			"bufferView":36,
			"componentType":5126,
			"count":116,
			"type":"VEC3"
		},
		{
			"bufferView":37,
			"componentType":5126,
			"count":80,
			"max":[
				1.5806599855422974,
				0.21076999604701996,
				-0.1380700021982193
			],
			"min":[
				-1.5806599855422974,
				-0.022430000826716423,
				-0.37127000093460083
			],
			"type":"VEC3"
		},
		{
			"bufferView":38,
			"componentType":5126,
			"count":80,
			"type":"VEC3"
		},
		{
			"bufferView":39,
			"componentType":5126,
			"count":116,
			"max":[
				1.4519100189208984,
				0.28148001432418823,
				-0.06112999841570854
			],
			"min":[
				-1.4519100189208984,
				-0.09651000052690506,
				-0.43911001086235046
			],
			"type":"VEC3"
		},
		{
			"bufferView":40,
			"componentType":5126,
			"count":116,
			"type":"VEC3"
		},
		{
			"bufferView":41,
			"componentType":5126,
			"count":80,
			"max":[
				1.5806599855422974,
				0.2070000022649765,
				-0.1356000006198883
			],
			"min":[
				-1.5806599855422974,
				-0.022029999643564224,
				-0.3646399974822998
			],
			"type":"VEC3"
		},
		{
			"bufferView":42,
			"componentType":5126,
			"count":80,
			"type":"VEC3"
		},
		{
			"bufferView":43,
			"componentType":5126,
			"count":256,
			"max":[
				1.6380399465560913,
				1.5117100477218628,
				0.02810000069439411
			],
			"min":[
				-1.6380399465560913,
				-1.4008300304412842,
				-0.6618599891662598
			],
			"type":"VEC3"
		},
		{
			"bufferView":44,
			"componentType":5126,
			"count":256,
			"type":"VEC3"
		},
		{
			"bufferView":45,
			"componentType":5123,
			"count":492,
			"type":"SCALAR"
		},
		{
			"bufferView":46,
			"componentType":5126,
			"count":16,
			"max":[
				1.3486700057983398,
				0.4778200089931488,
				-0.30476999282836914
			],
			"min":[
				-1.3486700057983398,
				-0.07682999968528748,
				-0.8594200015068054
			],
			"type":"VEC3"
		},
		{
			"bufferView":47,
			"componentType":5126,
			"count":16,
			"type":"VEC3"
		},
		{
			"bufferView":48,
			"componentType":5126,
			"count":61,
			"max":[
				2.5416666666666665
			],
			"min":[
				0.041666666666666664
			],
			"type":"SCALAR"
		},
		{
			"bufferView":49,
			"componentType":5126,
			"count":61,
			"type":"VEC4"
		},
		{
			"bufferView":50,
			"componentType":5126,
			"count":61,
			"type":"VEC4"
		}
	],
	"bufferViews":[
		{
			"buffer":0,
			"byteLength":2040,
			"byteOffset":0,
			"target":34962
		},
		{
			"buffer":0,
			"byteLength":2040,
			"byteOffset":2040,
			"target":34962
		},
		{
			"buffer":0,
			"byteLength":552,
			"byteOffset":4080,
			"target":34963
		},
		{
			"buffer":0,
			"byteLength":864,
			"byteOffset":4632,
			"target":34962
		},
		{
			"buffer":0,
			"byteLength":864,
			"byteOffset":5496,
			"target":34962
		},
		{
			"buffer":0,
			"byteLength":216,
			"byteOffset":6360,
			"target":34963
		},
		{
			"buffer":0,
			"byteLength":7872,
			"byteOffset":6576,
			"target":34962
		},
		{
			"buffer":0,
			"byteLength":7872,
			"byteOffset":14448,
			"target":34962
		},
		{
			"buffer":0,
			"byteLength":1728,
			"byteOffset":22320,
			"target":34963
		},
		{
			"buffer":0,
			"byteLength":3168,
			"byteOffset":24048,
			"target":34962
		},
		{
			"buffer":0,
			"byteLength":3168,
			"byteOffset":27216,
			"target":34962
		},
		{
			"buffer":0,
			"byteLength":804,
			"byteOffset":30384,
			"target":34963
		},
		{
			"buffer":0,
			"byteLength":1776,
			"byteOffset":31188,
			"target":34962
		},
		{
			"buffer":0,
			"byteLength":1776,
			"byteOffset":32964,
			"target":34962
		},
		{
			"buffer":0,
			"byteLength":456,
			"byteOffset":34740,
			"target":34963
		},
		{
			"buffer":0,
			"byteLength":2688,
			"byteOffset":35196,
			"target":34962
		},
		{
			"buffer":0,
			"byteLength":2688,
			"byteOffset":37884,
			"target":34962
		},
		{
			"buffer":0,
			"byteLength":768,
			"byteOffset":40572,
			"target":34963
		},
		{
			"buffer":0,
			"byteLength":1152,
			"byteOffset":41340,
			"target":34962
		},
		{
			"buffer":0,
			"byteLength":1152,
			"byteOffset":42492,
			"target":34962
		},
		{
			"buffer":0,
			"byteLength":264,
			"byteOffset":43644,
			"target":34963
		},
		{
			"buffer":0,
			"byteLength":2112,
			"byteOffset":43908,
			"target":34962
		},
		{
			"buffer":0,
			"byteLength":2112,
			"byteOffset":46020,
			"target":34962
		},
		{
			"buffer":0,
			"byteLength":648,
			"byteOffset":48132,
			"target":34963
		},
		{
			"buffer":0,
			"byteLength":2112,
			"byteOffset":48780,
			"target":34962
		},
		{
			"buffer":0,
			"byteLength":2112,
			"byteOffset":50892,
			"target":34962
		},
		{
			"buffer":0,
			"byteLength":192,
			"byteOffset":53004,
			"target":34962
		},
		{
			"buffer":0,
			"byteLength":192,
			"byteOffset":53196,
			"target":34962
		},
		{
			"buffer":0,
			"byteLength":72,
			"byteOffset":53388,
			"target":34963
		},
		{
			"buffer":0,
			"byteLength":1392,
			"byteOffset":53460,
			"target":34962
		},
		{
			"buffer":0,
			"byteLength":1392,
			"byteOffset":54852,
			"target":34962
		},
		{
			"buffer":0,
			"byteLength":456,
			"byteOffset":56244,
			"target":34963
		},
		{
			"buffer":0,
			"byteLength":960,
			"byteOffset":56700,
			"target":34962
		},
		{
			"buffer":0,
			"byteLength":960,
			"byteOffset":57660,
			"target":34962
		},
		{
			"buffer":0,
			"byteLength":264,
			"byteOffset":58620,
			"target":34963
		},
		{
			"buffer":0,
			"byteLength":1392,
			"byteOffset":58884,
			"target":34962
		},
		{
			"buffer":0,
			"byteLength":1392,
			"byteOffset":60276,
			"target":34962
		},
		{
			"buffer":0,
			"byteLength":960,
			"byteOffset":61668,
			"target":34962
		},
		{
			"buffer":0,
			"byteLength":960,
			"byteOffset":62628,
			"target":34962
		},
		{
			"buffer":0,
			"byteLength":1392,
			"byteOffset":63588,
			"target":34962
		},
		{
			"buffer":0,
			"byteLength":1392,
			"byteOffset":64980,
			"target":34962
		},
		{
			"buffer":0,
			"byteLength":960,
			"byteOffset":66372,
			"target":34962
		},
		{
			"buffer":0,
			"byteLength":960,
			"byteOffset":67332,
			"target":34962
		},
		{
			"buffer":0,
			"byteLength":3072,
			"byteOffset":68292,
			"target":34962
		},
		{
			"buffer":0,
			"byteLength":3072,
			"byteOffset":71364,
			"target":34962
		},
		{
			"buffer":0,
			"byteLength":984,
			"byteOffset":74436,
			"target":34963
		},
		{
			"buffer":0,
			"byteLength":192,
			"byteOffset":75420,
			"target":34962
		},
		{
			"buffer":0,
			"byteLength":192,
			"byteOffset":75612,
			"target":34962
		},
		{
			"buffer":0,
			"byteLength":244,
			"byteOffset":75804
		},
		{
			"buffer":0,
			"byteLength":976,
			"byteOffset":76048
		},
		{
			"buffer":0,
			"byteLength":976,
			"byteOffset":77024
		}
	],
	"buffers":[
		{
			"byteLength":78000,
			"uri":"data:application/octet-stream;base64,"
		}
	]
}
