{
	"asset":{
		"generator":"Khronos glTF Blender I/O v3.6.28",
		"version":"2.0"
	},
	"scene":0,
	"scenes":[
		{
			"name":"Scene",
			"nodes":[
				0,
				1,
				2,
				3,
				4,
				8
			]
		}
	],
	"nodes":[
		{
			"name":"Armature.021_224",
			"rotation":[
				0,
				0.6768788695335388,
				0,
				0.7360944151878357
			],
			"scale":[
				0.9795109629631042,
				0.979511022567749,
				0.9795109629631042
			],
			"translation":[
				-4.271446228027344,
				9.670729637145996,
				8.482083320617676
			]
		},
		{
			"name":"Armature.028_238",
			"rotation":[
				0,
				-0.9799669981002808,
				0,
				0.19916002452373505
			],
			"scale":[
				1.195836067199707,
				1.1958357095718384,
				1.195836067199707
			],
			"translation":[
				-3.9253838062286377,
				9.670729637145996,
				8.176240921020508
			]
		},
		{
			"name":"Armature.029_252",
			"rotation":[
				0,
				-0.6709298491477966,
				0,
				0.7415208220481873
			],
			"scale":[
				0.6758080720901489,
				0.6758080720901489,
				0.6758080720901489
			],
			"translation":[
				-3.226982593536377,
				9.670729637145996,
				8.6839599609375
			]
		},
		{
			"name":"Rocks.001_524",
			"scale":[
				0.20402532815933228,
				0.20402532815933228,
				0.20402532815933228
			],
			"translation":[
				-1.1607837677001953,
				9.509353637695312,
				9.267837524414062
			]
		},
		{
			"name":"Rock.006_529",
			"rotation":[
				0,
				0.6926360130310059,
				0,
				0.7212872505187988
			],
			"scale":[
				0.2528912425041199,
				0.2528911828994751,
				0.2528912425041199
			],
			"translation":[
				-2.844975233078003,
				8.936500549316406,
				-4.4235758781433105
			]
		},
		{
			"mesh":0,
			"name":"defaultMaterial"
		},
		{
			"children":[
				5
			],
			"name":"Rock_lod0",
			"rotation":[
				-0.70710688829422,
				0,
				0,
				0.7071066498756409
			]
		},
		{
			"children":[
				6
			],
			"name":"Collada visual scene group",
			"rotation":[
				0.70710688829422,
				0,
				0,
				0.7071066498756409
			]
		},
		{
			"children":[
				7
			],
			"name":"Sketchfab_model",
			"rotation":[
				-0.70710688829422,
				0,
				0,
				0.7071066498756409
			],
			"translation":[
				0,
				0.3506811261177063,
				0
			]
		}
	],
	"materials":[
		{
			"doubleSided":true,
			"name":"Rock_lod0",
			"normalTexture":{
				"index":0
			},
			"occlusionTexture":{
				"index":1
			},
			"pbrMetallicRoughness":{
				"baseColorTexture":{
					"index":2
				},
				"metallicRoughnessTexture":{
					"index":1
				}
			}
		}
	],
	"meshes":[
		{
			"name":"defaultMaterial",
			"primitives":[
				{
					"attributes":{
						"POSITION":0,
						"NORMAL":1,
						"TEXCOORD_0":2
					},
					"indices":3,
					"material":0
				}
			]
		}
	],
	"textures":[
		{
			"sampler":0,
			"source":0
		},
		{
			"sampler":0,
			"source":1
		},
		{
			"sampler":0,
			"source":2
		}
	],
	"images":[
		{
			"bufferView":4,
			"mimeType":"image/png",
			"name":"Rock_lod0_normal"
		},
		{
			"bufferView":5,
			"mimeType":"image/png",
			"name":"Rock_lod0_metallicRoughness"
		},
		{
			"bufferView":6,
			"mimeType":"image/jpeg",
			"name":"Rock_lod0_baseColor"
		}
	],
	"accessors":[
		{
			"bufferView":0,
			"componentType":5126,
			"count":959,
			"max":[
				0.7248209714889526,
				0.6807230114936829,
				2.2184898853302
			],
			"min":[
				-0.6942099928855896,
				-0.7873290181159973,
				-0.362637996673584
			],
			"type":"VEC3"
		},
		{
			"bufferView":1,
			"componentType":5126,
			"count":959,
			"type":"VEC3"
		},
		{
			"bufferView":2,
			"componentType":5126,
			"count":959,
			"type":"VEC2"
		},
		{
			"bufferView":3,
			"componentType":5123,
			"count":4482,
			"type":"SCALAR"
		}
	],
	"bufferViews":[
		{
			"buffer":0,
			"byteLength":11508,
			"byteOffset":0,
			"target":34962
		},
		{
			"buffer":0,
			"byteLength":11508,
			"byteOffset":11508,
			"target":34962
		},
		{
			"buffer":0,
			"byteLength":7672,
			"byteOffset":23016,
			"target":34962
		},
		{
			"buffer":0,
			"byteLength":8964,
			"byteOffset":30688,
			"target":34963
		},
		{
			"buffer":0,
			"byteLength":688410,
			"byteOffset":39652
		},
		{
			"buffer":0,
			"byteLength":347016,
			"byteOffset":728064
		},
		{
			"buffer":0,
			"byteLength":131064,
			"byteOffset":1075080
		}
	],
	"samplers":[
		{
			"magFilter":9729,
			"minFilter":9987
		}
	],
	"buffers":[
		{
			"byteLength":1206144,
			"uri":"data:application/octet-stream;base64,"
		}
	]
}
