{
	"asset":{
		"generator":"Khronos glTF Blender I/O v3.6.28",
		"version":"2.0"
	},
	"extensionsUsed":[
		"KHR_materials_specular"
	],
	"scene":0,
	"scenes":[
		{
			"name":"Scene",
			"nodes":[
				14
			]
		}
	],
	"nodes":[
		{
			"name":"exhausts",
			"translation":[
				0,
				1.1792399883270264,
				0.28106993436813354
			]
		},
		{
			"name":"cannon",
			"translation":[
				0,
				-1.7769805192947388,
				0.38835006952285767
			]
		},
		{
			"mesh":0,
			"name":"head_0"
		},
		{
			"children":[
				1,
				2
			],
			"name":"head",
			"translation":[
				0,
				-0.3904900550842285,
				0.714139997959137
			]
		},
		{
			"name":"headlights",
			"translation":[
				0,
				-2.712399959564209,
				0.2253400832414627
			]
		},
		{
			"name":"front wheel",
			"translation":[
				0,
				-0.9762899875640869,
				-0.11769996583461761
			]
		},
		{
			"name":"mid front wheel",
			"translation":[
				0,
				-0.3657100796699524,
				-0.7738900184631348
			]
		},
		{
			"name":"mid rear wheel",
			"translation":[
				0,
				0.08900994062423706,
				-0.6402698159217834
			]
		},
		{
			"name":"mid top wheel",
			"translation":[
				0,
				-0.1515900045633316,
				-0.2839799225330353
			]
		},
		{
			"name":"rear wheel",
			"translation":[
				0,
				0.5987799167633057,
				-0.04999004676938057
			]
		},
		{
			"name":"thread",
			"translation":[
				0,
				0.5603199601173401,
				0
			]
		},
		{
			"children":[
				5,
				6,
				7,
				8,
				9,
				10
			],
			"name":"mudflaps",
			"translation":[
				0,
				-0.5603200197219849,
				0.22534002363681793
			]
		},
		{
			"children":[
				0,
				3,
				4,
				11
			],
			"name":"body",
			"translation":[
				0,
				0,
				0.9132400751113892
			]
		},
		{
			"children":[
				12
			],
			"name":"Root"
		},
		{
			"children":[
				13
			],
			"name":"Sketchfab_model",
			"rotation":[
				-0.70710688829422,
				0,
				0,
				0.7071066498756409
			]
		}
	],
	"materials":[
		{
			"doubleSided":true,
			"extensions":{
				"KHR_materials_specular":{
					"specularColorFactor":[
						0.04794520139694213,
						0.047945201396942125,
						0.04794520139694212
					]
				}
			},
			"name":"base.002",
			"pbrMetallicRoughness":{
				"baseColorFactor":[
					0.3506334722042084,
					0.15298837423324585,
					0.030532874166965485,
					1
				],
				"metallicFactor":0,
				"roughnessFactor":0.06164383515715599
			}
		},
		{
			"doubleSided":true,
			"extensions":{
				"KHR_materials_specular":{
					"specularColorFactor":[
						0.35616439580917353,
						0.35616439580917353,
						0.35616439580917353
					]
				}
			},
			"name":"metal.002",
			"pbrMetallicRoughness":{
				"baseColorFactor":[
					0.03791062533855438,
					0.04311833530664444,
					0.04326586052775383,
					1
				],
				"metallicFactor":0.05000000074505806,
				"roughnessFactor":0
			}
		},
		{
			"doubleSided":true,
			"emissiveFactor":[
				1,
				1,
				0.1688375473022461
			],
			"name":"lights.002",
			"pbrMetallicRoughness":{
				"baseColorFactor":[
					1,
					0.954303503036499,
					0.2527695298194885,
					1
				],
				"metallicFactor":0,
				"roughnessFactor":0.6000000238418579
			}
		},
		{
			"doubleSided":true,
			"name":"wheel.002",
			"pbrMetallicRoughness":{
				"baseColorFactor":[
					0.02638307958841324,
					0.026169834658503532,
					0.026169834658503532,
					1
				],
				"metallicFactor":0.05000000074505806,
				"roughnessFactor":0
			}
		},
		{
			"doubleSided":true,
			"name":"wheel_inside.002",
			"pbrMetallicRoughness":{
				"baseColorFactor":[
					0.0874033272266388,
					0.09503719210624695,
					0.09420879185199738,
					1
				],
				"metallicFactor":0.10000000149011612,
				"roughnessFactor":0
			}
		}
	],
	"meshes":[
		{
			"name":"head_0",
			"primitives":[
				{
					"attributes":{
						"POSITION":0,
						"NORMAL":1
					},
					"indices":2,
					"material":0
				},
				{
					"attributes":{
						"POSITION":3,
						"NORMAL":4
					},
					"indices":5,
					"material":1
				},
				{
					"attributes":{
						"POSITION":6,
						"NORMAL":7
					},
					"indices":8,
					"material":2
				},
				{
					"attributes":{
						"POSITION":9,
						"NORMAL":10
					},
					"indices":11,
					"material":3
				},
				{
					"attributes":{
						"POSITION":12,
						"NORMAL":13
					},
					"indices":14,
					"material":4
				}
			]
		}
	],
	"accessors":[
		{
			"bufferView":0,
			"componentType":5126,
			"count":878,
			"max":[
				1.6380399465560913,
				1.7485699653625488,
				0.7328500151634216
			],
			"min":[
				-1.6380399465560913,
				-1.86135995388031,
				-1.4947998523712158
			],
			"type":"VEC3"
		},
		{
			"bufferView":1,
			"componentType":5126,
			"count":878,
			"type":"VEC3"
		},
		{
			"bufferView":2,
			"componentType":5123,
			"count":1488,
			"type":"SCALAR"
		},
		{
			"bufferView":3,
			"componentType":5126,
			"count":924,
			"max":[
				0.8384699821472168,
				2.069889783859253,
				0.6699497699737549
			],
			"min":[
				-0.8384699821472168,
				-2.782050132751465,
				-0.5603800415992737
			],
			"type":"VEC3"
		},
		{
			"bufferView":4,
			"componentType":5126,
			"count":924,
			"type":"VEC3"
		},
		{
			"bufferView":5,
			"componentType":5123,
			"count":1266,
			"type":"SCALAR"
		},
		{
			"bufferView":6,
			"componentType":5126,
			"count":96,
			"max":[
				0.6895300149917603,
				-1.8170499801635742,
				-0.6158899068832397
			],
			"min":[
				-0.6895300149917603,
				-1.844019889831543,
				-0.8895899057388306
			],
			"type":"VEC3"
		},
		{
			"bufferView":7,
			"componentType":5126,
			"count":96,
			"type":"VEC3"
		},
		{
			"bufferView":8,
			"componentType":5123,
			"count":132,
			"type":"SCALAR"
		},
		{
			"bufferView":9,
			"componentType":5126,
			"count":700,
			"max":[
				1.514240026473999,
				1.0830235481262207,
				-0.7379396557807922
			],
			"min":[
				-1.514240026473999,
				-1.373818039894104,
				-1.5997912883758545
			],
			"type":"VEC3"
		},
		{
			"bufferView":10,
			"componentType":5126,
			"count":700,
			"type":"VEC3"
		},
		{
			"bufferView":11,
			"componentType":5123,
			"count":1332,
			"type":"SCALAR"
		},
		{
			"bufferView":12,
			"componentType":5126,
			"count":272,
			"max":[
				1.5806599855422974,
				0.9067699909210205,
				-0.8435600996017456
			],
			"min":[
				-1.5806599855422974,
				-1.2039997577667236,
				-1.5261799097061157
			],
			"type":"VEC3"
		},
		{
			"bufferView":13,
			"componentType":5126,
			"count":272,
			"type":"VEC3"
		},
		{
			"bufferView":14,
			"componentType":5123,
			"count":468,
			"type":"SCALAR"
		}
	],
	"bufferViews":[
		{
			"buffer":0,
			"byteLength":10536,
			"byteOffset":0,
			"target":34962
		},
		{
			"buffer":0,
			"byteLength":10536,
			"byteOffset":10536,
			"target":34962
		},
		{
			"buffer":0,
			"byteLength":2976,
			"byteOffset":21072,
			"target":34963
		},
		{
			"buffer":0,
			"byteLength":11088,
			"byteOffset":24048,
			"target":34962
		},
		{
			"buffer":0,
			"byteLength":11088,
			"byteOffset":35136,
			"target":34962
		},
		{
			"buffer":0,
			"byteLength":2532,
			"byteOffset":46224,
			"target":34963
		},
		{
			"buffer":0,
			"byteLength":1152,
			"byteOffset":48756,
			"target":34962
		},
		{
			"buffer":0,
			"byteLength":1152,
			"byteOffset":49908,
			"target":34962
		},
		{
			"buffer":0,
			"byteLength":264,
			"byteOffset":51060,
			"target":34963
		},
		{
			"buffer":0,
			"byteLength":8400,
			"byteOffset":51324,
			"target":34962
		},
		{
			"buffer":0,
			"byteLength":8400,
			"byteOffset":59724,
			"target":34962
		},
		{
			"buffer":0,
			"byteLength":2664,
			"byteOffset":68124,
			"target":34963
		},
		{
			"buffer":0,
			"byteLength":3264,
			"byteOffset":70788,
			"target":34962
		},
		{
			"buffer":0,
			"byteLength":3264,
			"byteOffset":74052,
			"target":34962
		},
		{
			"buffer":0,
			"byteLength":936,
			"byteOffset":77316,
			"target":34963
		}
	],
	"buffers":[
		{
			"byteLength":78252,
			"uri":"data:application/octet-stream;base64,"
		}
	]
}
