{
	"asset":{
		"generator":"Khronos glTF Blender I/O v3.6.28",
		"version":"2.0"
	},
	"scene":0,
	"scenes":[
		{
			"name":"Scene",
			"nodes":[
				0
			]
		}
	],
	"nodes":[
		{
			"mesh":0,
			"name":"Farm_Crop_Carrot_Step_03",
			"rotation":[
				0.7071068286895752,
				0,
				0,
				0.7071068286895752
			],
			"scale":[
				0.010387553833425045,
				0.010387553833425045,
				0.012462207116186619
			]
		}
	],
	"materials":[
		{
			"doubleSided":true,
			"name":"Color_Palette_01",
			"pbrMetallicRoughness":{
				"baseColorTexture":{
					"index":0
				},
				"metallicFactor":0,
				"roughnessFactor":0.8795369267463684
			}
		}
	],
	"meshes":[
		{
			"name":"Farm_Crop_Carrot_Step_03",
			"primitives":[
				{
					"attributes":{
						"POSITION":0,
						"NORMAL":1,
						"TEXCOORD_0":2
					},
					"indices":3,
					"material":0
				}
			]
		}
	],
	"textures":[
		{
			"sampler":0,
			"source":0
		}
	],
	"images":[
		{
			"bufferView":4,
			"mimeType":"image/png",
			"name":"Farming_Color_Palette_01"
		}
	],
	"accessors":[
		{
			"bufferView":0,
			"componentType":5126,
			"count":2656,
			"max":[
				75.39910888671875,
				74.31283569335938,
				25.76015853881836
			],
			"min":[
				-74.31275939941406,
				-74.31288146972656,
				-111.51487731933594
			],
			"type":"VEC3"
		},
		{
			"bufferView":1,
			"componentType":5126,
			"count":2656,
			"type":"VEC3"
		},
		{
			"bufferView":2,
			"componentType":5126,
			"count":2656,
			"type":"VEC2"
		},
		{
			"bufferView":3,
			"componentType":5123,
			"count":10536,
			"type":"SCALAR"
		}
	],
	"bufferViews":[
		{
			"buffer":0,
			"byteLength":31872,
			"byteOffset":0,
			"target":34962
		},
		{
			"buffer":0,
			"byteLength":31872,
			"byteOffset":31872,
			"target":34962
		},
		{
			"buffer":0,
			"byteLength":21248,
			"byteOffset":63744,
			"target":34962
		},
		{
			"buffer":0,
			"byteLength":21072,
			"byteOffset":84992,
			"target":34963
		},
		{
			"buffer":0,
			"byteLength":855315,
			"byteOffset":106064
		}
	],
	"samplers":[
		{
			"magFilter":9729,
			"minFilter":9987
		}
	],
	"buffers":[
		{
			"byteLength":961380,
			"uri":"data:application/octet-stream;base64,"
		}
	]
}
