{
	"asset":{
		"generator":"Khronos glTF Blender I/O v3.6.28",
		"version":"2.0"
	},
	"scene":0,
	"scenes":[
		{
			"name":"Scene",
			"nodes":[
				0
			]
		}
	],
	"nodes":[
		{
			"mesh":0,
			"name":"Farm_Crop_Cauliflower_Step_03",
			"rotation":[
				0.7071068286895752,
				0,
				0,
				0.7071068286895752
			],
			"scale":[
				0.012593056075274944,
				0.012593056075274944,
				0.018496252596378326
			],
			"translation":[
				0,
				0.02487795613706112,
				0
			]
		}
	],
	"materials":[
		{
			"doubleSided":true,
			"name":"Color_Palette_01",
			"pbrMetallicRoughness":{
				"baseColorTexture":{
					"index":0
				},
				"metallicFactor":0,
				"roughnessFactor":0.8795369267463684
			}
		}
	],
	"meshes":[
		{
			"name":"Farm_Crop_Cauliflower_Step_03",
			"primitives":[
				{
					"attributes":{
						"POSITION":0,
						"NORMAL":1,
						"TEXCOORD_0":2
					},
					"indices":3,
					"material":0
				}
			]
		}
	],
	"textures":[
		{
			"sampler":0,
			"source":0
		}
	],
	"images":[
		{
			"bufferView":4,
			"mimeType":"image/png",
			"name":"Farming_Color_Palette_01"
		}
	],
	"accessors":[
		{
			"bufferView":0,
			"componentType":5126,
			"count":2328,
			"max":[
				83.53598022460938,
				80.59307861328125,
				5.768045902252197
			],
			"min":[
				-83.53598022460938,
				-80.59307861328125,
				-50.60051727294922
			],
			"type":"VEC3"
		},
		{
			"bufferView":1,
			"componentType":5126,
			"count":2328,
			"type":"VEC3"
		},
		{
			"bufferView":2,
			"componentType":5126,
			"count":2328,
			"type":"VEC2"
		},
		{
			"bufferView":3,
			"componentType":5123,
			"count":12768,
			"type":"SCALAR"
		}
	],
	"bufferViews":[
		{
			"buffer":0,
			"byteLength":27936,
			"byteOffset":0,
			"target":34962
		},
		{
			"buffer":0,
			"byteLength":27936,
			"byteOffset":27936,
			"target":34962
		},
		{
			"buffer":0,
			"byteLength":18624,
			"byteOffset":55872,
			"target":34962
		},
		{
			"buffer":0,
			"byteLength":25536,
			"byteOffset":74496,
			"target":34963
		},
		{
			"buffer":0,
			"byteLength":855315,
			"byteOffset":100032
		}
	],
	"samplers":[
		{
			"magFilter":9729,
			"minFilter":9987
		}
	],
	"buffers":[
		{
			"byteLength":955348,
			"uri":"data:application/octet-stream;base64,"
		}
	]
}
